<svg version="1.1" id="Layer_1" xmlns="http://www.w3.org/2000/svg"
	xmlns:xlink="http://www.w3.org/1999/xlink" x="0px" y="0px"
	width="100%" viewBox="0 0 928 928" enable-background="new 0 0 928 928" xml:space="preserve">
<path fill="#FFFFFF" opacity="1.000000" stroke="none" 
	d="
M430.000000,929.000000 
	C286.666656,929.000000 143.833328,929.000000 1.000000,929.000000 
	C1.000000,619.666687 1.000000,310.333344 1.000000,1.000000 
	C310.333344,1.000000 619.666687,1.000000 929.000000,1.000000 
	C929.000000,310.333344 929.000000,619.666687 929.000000,929.000000 
	C762.833313,929.000000 596.666687,929.000000 430.000000,929.000000 
M572.377747,355.840515 
	C572.399292,346.009277 572.555603,336.176025 572.405579,326.347382 
	C572.247009,315.958771 569.781067,306.245605 563.240295,297.845947 
	C553.571533,285.429535 540.619324,280.440063 525.214539,280.443909 
	C370.067841,280.482666 214.921127,280.467499 59.774418,280.468048 
	C58.774559,280.468048 57.774002,280.452484 56.774948,280.482941 
	C31.495039,281.253723 12.553268,299.611237 12.521301,324.056885 
	C12.397741,418.544556 12.458615,513.032471 12.482355,607.520325 
	C12.484445,615.837402 14.286351,623.744202 18.787144,630.860596 
	C28.295813,645.895203 42.285671,652.220215 59.739208,652.215332 
	C214.885910,652.171997 370.032623,652.190125 525.179321,652.189758 
	C526.012512,652.189758 526.846313,652.203857 527.678894,652.179871 
	C552.865295,651.455566 570.634460,634.464417 572.259949,609.356201 
	C572.636108,603.545593 572.452515,597.698730 573.493164,591.597839 
	C579.157654,591.576843 584.841736,591.836975 590.480469,591.445251 
	C594.922241,591.136658 599.292297,589.903931 603.725342,589.316833 
	C606.208557,588.988037 608.931396,588.517212 611.244080,589.174072 
	C624.352844,592.897400 637.424988,593.811768 650.647156,589.884460 
	C652.035583,589.472107 653.580383,589.303711 655.024658,589.408447 
	C663.950623,590.056213 672.874390,591.456177 681.787659,591.374329 
	C692.989502,591.271545 704.142395,590.960571 715.383606,591.260132 
	C745.682068,592.067505 776.016296,591.541016 806.336304,591.531067 
	C811.143799,591.529480 815.951538,591.477173 820.758789,591.421021 
	C829.911804,591.314148 839.148315,591.895813 848.188477,590.825684 
	C854.451904,590.084167 860.256470,590.120239 866.562927,590.809082 
	C877.561646,592.010315 888.849915,591.522827 899.934326,590.670959 
	C908.673950,589.999146 915.497742,585.021790 919.857361,577.229736 
	C925.515320,567.117065 924.889038,557.092407 918.778809,547.425537 
	C916.659607,544.072693 916.287903,541.507629 918.343994,537.577393 
	C929.048035,517.116272 924.360596,491.897156 907.547729,477.342438 
	C897.006226,468.216705 884.536621,464.248291 870.720642,464.243164 
	C828.570923,464.227570 786.420349,464.083038 744.271973,464.319855 
	C729.340027,464.403778 714.414917,465.482269 699.482422,465.980225 
	C697.941101,466.031647 696.370850,465.216003 694.204102,464.640778 
	C698.386841,451.346039 691.706726,441.559662 684.575684,431.869934 
	C681.812683,428.115631 679.463562,424.051697 676.626892,420.358521 
	C674.810120,417.993134 675.137939,416.429718 677.099976,414.405762 
	C680.574890,410.821167 683.928955,407.098083 687.085938,403.230774 
	C694.265869,394.435425 695.884399,384.520325 691.227966,374.222260 
	C686.446960,363.648529 677.874390,357.440186 666.115295,357.403473 
	C654.184448,357.366180 642.250793,358.389984 630.316650,358.909943 
	C629.351868,358.951965 628.376099,358.609161 627.401917,358.584747 
	C615.294617,358.281097 603.066223,356.879181 591.125732,358.157410 
	C584.396973,358.877716 578.437500,358.443756 572.377747,355.840515 
z"/>
<path fill="#046BB5" opacity="1.000000" stroke="none" 
	d="
M572.227112,356.721771 
	C578.437500,358.443756 584.396973,358.877716 591.125732,358.157410 
	C603.066223,356.879181 615.294617,358.281097 627.401917,358.584747 
	C628.376099,358.609161 629.351868,358.951965 630.316650,358.909943 
	C642.250793,358.389984 654.184448,357.366180 666.115295,357.403473 
	C677.874390,357.440186 686.446960,363.648529 691.227966,374.222260 
	C695.884399,384.520325 694.265869,394.435425 687.085938,403.230774 
	C683.928955,407.098083 680.574890,410.821167 677.099976,414.405762 
	C675.137939,416.429718 674.810120,417.993134 676.626892,420.358521 
	C679.463562,424.051697 681.812683,428.115631 684.575684,431.869934 
	C691.706726,441.559662 698.386841,451.346039 694.204102,464.640778 
	C696.370850,465.216003 697.941101,466.031647 699.482422,465.980225 
	C714.414917,465.482269 729.340027,464.403778 744.271973,464.319855 
	C786.420349,464.083038 828.570923,464.227570 870.720642,464.243164 
	C884.536621,464.248291 897.006226,468.216705 907.547729,477.342438 
	C924.360596,491.897156 929.048035,517.116272 918.343994,537.577393 
	C916.287903,541.507629 916.659607,544.072693 918.778809,547.425537 
	C924.889038,557.092407 925.515320,567.117065 919.857361,577.229736 
	C915.497742,585.021790 908.673950,589.999146 899.934326,590.670959 
	C888.849915,591.522827 877.561646,592.010315 866.562927,590.809082 
	C860.256470,590.120239 854.451904,590.084167 848.188477,590.825684 
	C839.148315,591.895813 829.911804,591.314148 820.758789,591.421021 
	C815.951538,591.477173 811.143799,591.529480 806.336304,591.531067 
	C776.016296,591.541016 745.682068,592.067505 715.383606,591.260132 
	C704.142395,590.960571 692.989502,591.271545 681.787659,591.374329 
	C672.874390,591.456177 663.950623,590.056213 655.024658,589.408447 
	C653.580383,589.303711 652.035583,589.472107 650.647156,589.884460 
	C637.424988,593.811768 624.352844,592.897400 611.244080,589.174072 
	C608.931396,588.517212 606.208557,588.988037 603.725342,589.316833 
	C599.292297,589.903931 594.922241,591.136658 590.480469,591.445251 
	C584.841736,591.836975 579.157654,591.576843 572.617920,591.580444 
	C566.066406,590.669617 560.388855,589.784302 554.714783,588.877075 
	C553.344910,588.658020 551.986511,588.366760 550.270508,588.136841 
	C545.062500,589.341858 540.206848,590.518860 534.880859,591.552979 
	C525.772888,591.461060 517.135315,591.511963 507.987854,591.501343 
	C494.618469,590.546143 481.491150,593.549500 468.882385,588.783813 
	C468.225555,588.535583 467.262634,588.930359 466.490967,589.177795 
	C454.602936,592.989502 442.382233,591.476562 430.322174,590.964355 
	C425.552551,590.761780 420.877533,586.937195 416.173553,586.967224 
	C411.285980,586.998474 406.494080,590.593445 401.520111,591.029236 
	C392.765137,591.796326 383.902740,591.449341 375.086670,591.383301 
	C356.491760,591.243958 344.863892,579.608093 344.727539,561.080078 
	C344.663879,552.427246 344.561493,543.769470 344.792267,535.122437 
	C344.878845,531.878723 343.916656,530.334595 340.695892,529.656799 
	C334.566162,528.366943 329.961761,524.660583 326.132660,519.801208 
	C321.565674,514.005371 320.610016,507.155518 320.158997,499.688232 
	C320.643250,490.966400 319.863251,482.438110 321.743378,474.543396 
	C323.212402,468.375061 324.289917,462.741394 323.496002,456.380554 
	C322.619385,449.357452 323.058319,442.170197 323.051819,434.596008 
	C323.219452,414.838745 323.159698,395.539032 323.328552,376.241333 
	C323.486908,358.148071 335.420258,346.351929 353.532257,346.269165 
	C371.501251,346.187042 389.471436,346.174011 407.440094,346.288055 
	C416.667206,346.346619 426.193939,347.030975 433.906799,352.176392 
	C441.465485,357.218994 449.251953,357.592682 457.569092,357.262329 
	C459.562561,357.183136 461.618744,356.947388 463.547546,357.309113 
	C468.887024,358.310364 474.174469,360.501312 479.482483,360.501373 
	C484.790680,360.501465 490.049713,357.861389 495.419159,357.389526 
	C502.521027,356.765411 509.709290,357.124512 517.248657,357.184692 
	C521.272522,358.266571 525.244080,358.604736 528.456421,360.344513 
	C532.230957,362.388794 535.413269,362.821045 539.233093,360.396698 
	C539.687805,360.242706 539.845154,360.120758 540.388916,359.998505 
	C543.870300,358.973114 546.965210,357.948029 550.216309,356.973663 
	C550.372437,357.024384 550.688721,356.935822 551.121460,357.055237 
	C558.445190,357.023682 565.336121,356.872711 572.227112,356.721771 
M388.500000,374.317444 
	C377.843964,374.317444 367.183411,374.496246 356.534180,374.226898 
	C352.441681,374.123352 351.152496,375.232056 351.187683,379.464966 
	C351.386932,403.439362 351.279816,427.416229 351.294678,451.392273 
	C351.295593,452.853882 351.448151,454.315399 351.537567,455.909485 
	C360.699219,455.909485 369.543182,455.909485 379.029541,455.909485 
	C379.029541,445.789429 379.029541,436.080139 379.029541,426.035370 
	C388.978363,426.035370 398.287323,426.238251 407.584290,425.990326 
	C423.631714,425.562378 435.783630,412.666412 434.623077,397.611145 
	C433.641571,384.878998 426.111725,376.376099 413.435242,374.964935 
	C405.530731,374.085052 397.483246,374.489532 388.500000,374.317444 
M769.462463,511.450836 
	C783.067688,511.450836 796.672913,511.450836 810.321533,511.450836 
	C810.321533,504.741760 810.321533,498.710358 810.321533,492.719604 
	C787.859314,492.719604 765.826843,492.719604 743.643921,492.719604 
	C743.643921,516.360291 743.643921,539.594543 743.643921,563.020996 
	C766.089050,563.020996 788.267151,563.020996 810.399780,563.020996 
	C810.399780,556.699036 810.399780,550.787842 810.399780,544.259521 
	C796.013977,544.259521 781.962463,544.259521 767.874878,544.259521 
	C767.874878,541.728333 767.874878,539.825378 767.874878,537.318848 
	C782.268250,537.318848 796.328979,537.318848 810.276611,537.318848 
	C810.276611,530.660400 810.276611,524.621155 810.276611,518.161316 
	C795.885742,518.161316 781.961243,518.161316 767.218323,518.161316 
	C767.703064,515.626770 768.082031,513.645264 769.462463,511.450836 
M888.689087,531.224854 
	C895.019653,524.959473 897.226135,517.395081 895.130859,508.820862 
	C892.624084,498.563049 883.998474,492.494171 871.747253,492.366058 
	C856.100342,492.202362 840.450378,492.310883 824.801819,492.345398 
	C823.714294,492.347778 822.627625,492.709320 821.645447,492.885101 
	C821.645447,516.468201 821.645447,539.694458 821.645447,563.019043 
	C829.587646,563.019043 837.165161,563.019043 845.399414,563.019043 
	C845.399414,554.338562 845.399414,545.951843 845.399414,537.687073 
	C855.582581,536.189270 855.593872,536.183105 860.015686,544.284485 
	C862.886658,549.544556 865.636475,554.873169 868.626526,560.064026 
	C869.370911,561.356262 870.802551,563.115295 871.973999,563.158813 
	C879.517456,563.438843 887.076416,563.302002 895.571350,563.302002 
	C890.144592,553.776978 885.264038,545.210632 880.422974,536.713623 
	C883.439819,534.756836 885.795959,533.228577 888.689087,531.224854 
M497.905945,532.489624 
	C504.641266,526.967773 507.528625,519.805359 506.370331,511.246307 
	C504.849884,500.010345 496.205688,492.703400 483.475250,492.433807 
	C467.333099,492.092010 451.178528,492.329956 435.029327,492.341644 
	C434.235138,492.342224 433.441101,492.568909 432.437836,492.722260 
	C432.437836,516.277832 432.437836,539.617004 432.437836,562.987305 
	C440.406067,562.987305 447.981018,562.987305 456.060822,562.987305 
	C456.060822,555.701355 456.013824,548.749695 456.099915,541.799683 
	C456.117432,540.384460 456.178436,538.548035 457.016754,537.650940 
	C458.861328,535.676941 467.098541,537.497437 468.458160,539.989197 
	C472.126038,546.711365 475.653625,553.511414 479.416718,560.179077 
	C480.138275,561.457581 481.649170,563.119019 482.849426,563.163696 
	C490.258148,563.438965 497.682190,563.301880 506.288544,563.301880 
	C500.888611,553.793396 496.034546,545.246033 491.123810,536.598877 
	C493.633514,535.119019 495.481537,534.029297 497.905945,532.489624 
M520.526001,563.330933 
	C524.356628,563.330688 528.199402,563.142456 532.014099,563.388611 
	C535.150208,563.590942 537.186096,562.787720 537.572144,559.412781 
	C537.946899,556.136353 539.739014,555.080811 543.007141,555.240234 
	C548.324036,555.499695 553.675598,555.534546 558.988098,555.233398 
	C562.733521,555.021118 564.933899,555.971863 565.681274,559.948425 
	C565.917114,561.203003 567.509033,563.129089 568.532471,563.162659 
	C576.604248,563.428528 584.688660,563.310364 592.852966,563.310364 
	C592.774658,562.078674 592.847046,561.554199 592.697449,561.103455 
	C585.407959,539.134399 578.162659,517.149963 570.641235,495.260376 
	C570.172729,493.896881 567.544983,492.498688 565.883179,492.450531 
	C556.564270,492.180664 547.229187,492.483612 537.908936,492.237915 
	C534.327332,492.143463 532.693298,493.234833 531.562500,496.741821 
	C525.327637,516.077271 518.805664,535.320190 512.385559,554.595886 
	C511.501312,557.250732 510.636139,559.911926 509.511993,563.331177 
	C513.316467,563.331177 516.428528,563.331177 520.526001,563.330933 
M513.099670,385.318207 
	C506.483582,385.318207 499.867523,385.318207 492.842224,385.318207 
	C492.842224,387.803711 492.845245,389.613586 492.841705,391.423431 
	C492.821106,401.922943 493.028381,412.429352 492.711884,422.919952 
	C492.405121,433.085785 486.686646,438.167511 477.513428,437.091919 
	C470.418884,436.260040 466.167480,431.220764 465.958618,422.573639 
	C465.705139,412.079773 465.875031,401.575897 465.835480,391.076447 
	C465.828827,389.311646 465.689026,387.547394 465.603790,385.625671 
	C457.510162,385.625671 449.931152,385.625671 441.303101,385.625671 
	C441.874634,401.215149 441.482788,416.584106 443.273132,431.694519 
	C444.911987,445.526611 454.197479,454.069397 468.036469,456.184784 
	C475.007172,457.250336 482.399780,457.346466 489.363983,456.299835 
	C504.987213,453.951843 514.394226,444.586914 515.909851,428.823547 
	C517.212646,415.273651 516.649536,401.539673 516.709412,387.886200 
	C516.713196,387.036316 514.954712,386.178711 513.099670,385.318207 
M718.043701,535.424011 
	C715.598938,531.849304 713.288269,528.171936 710.660828,524.736877 
	C708.985962,522.547241 709.323242,521.114014 711.113159,519.195496 
	C717.589355,512.253479 723.899780,505.156891 730.267944,498.114227 
	C731.747070,496.478363 733.206482,494.824707 735.445007,492.316406 
	C727.748474,492.316406 721.446350,492.538177 715.169739,492.234558 
	C711.309753,492.047821 708.643677,493.250275 706.174194,496.218597 
	C701.131104,502.280518 695.740417,508.053345 690.492920,513.945190 
	C690.104919,513.802368 689.716980,513.659485 689.328979,513.516602 
	C689.328979,506.626129 689.328979,499.735657 689.328979,492.783875 
	C680.956238,492.783875 673.266235,492.783875 665.671143,492.783875 
	C665.671143,516.484070 665.671143,539.714783 665.671143,562.995117 
	C673.642212,562.995117 681.220398,562.995117 688.562012,562.995117 
	C691.489319,555.157166 685.388550,545.722290 694.030640,538.682556 
	C699.108826,546.159058 703.810852,553.185242 708.651550,560.114441 
	C709.535828,561.380188 710.955139,563.119995 712.179138,563.162842 
	C720.068054,563.438904 727.971252,563.304016 737.088562,563.304016 
	C730.395142,553.508667 724.420288,544.764893 718.043701,535.424011 
M633.355896,392.836426 
	C629.126953,397.577423 624.898010,402.318420 620.669128,407.059418 
	C620.261841,406.851288 619.854553,406.643158 619.447266,406.434998 
	C619.447266,399.528229 619.447266,392.621429 619.447266,385.621704 
	C611.283875,385.621704 603.694458,385.621704 596.051025,385.621704 
	C596.051025,409.302429 596.051025,432.679688 596.051025,455.978943 
	C604.050232,455.978943 611.629700,455.978943 618.936340,455.978943 
	C621.794617,448.067474 615.792542,438.677460 624.204590,431.604553 
	C629.289673,439.077026 634.005737,446.106476 638.854736,453.042999 
	C639.744141,454.315216 641.142029,456.092865 642.358337,456.135925 
	C650.248840,456.415253 658.153992,456.279144 666.959412,456.279144 
	C665.566772,453.995575 664.792542,452.591919 663.893677,451.273254 
	C656.573242,440.532440 649.346985,429.723999 641.820129,419.129272 
	C639.591736,415.992676 639.495056,413.978668 642.276245,411.091888 
	C649.210449,403.894592 655.786316,396.351440 662.476868,388.920898 
	C663.282959,388.025696 663.909851,386.969147 665.101990,385.320648 
	C659.283264,385.320648 654.275330,385.763550 649.378906,385.213531 
	C642.570129,384.448730 637.364319,386.323486 633.355896,392.836426 
M406.497894,481.318085 
	C387.263794,481.318085 368.029663,481.318085 348.820862,481.318085 
	C348.820862,488.985504 348.820862,495.856262 348.820862,503.352905 
	C356.988556,503.352905 364.709717,503.352905 372.850464,503.352905 
	C372.850464,523.569031 372.850464,543.147461 372.850464,562.865967 
	C382.149078,562.865967 390.983582,562.865967 400.102814,562.865967 
	C400.102814,544.268555 400.219910,526.135559 400.012115,508.006226 
	C399.966003,503.983002 401.201874,502.798370 405.119263,502.983307 
	C411.383728,503.279022 417.672363,503.062469 424.213165,503.062469 
	C424.213165,495.573334 424.213165,488.690155 424.213165,481.318268 
	C418.411224,481.318268 412.953949,481.318268 406.497894,481.318085 
M553.530090,456.262207 
	C566.800293,459.126984 578.332153,456.126129 587.472473,447.317566 
	C581.702820,441.456146 576.380798,436.049469 570.948303,430.530518 
	C571.120728,430.442413 570.816040,430.579193 570.529724,430.747101 
	C563.737549,434.730652 557.206665,434.208160 552.819885,429.326508 
	C548.830383,424.886932 548.508728,417.907318 552.075378,413.171844 
	C556.136292,407.780212 562.223633,406.753906 569.534424,410.050476 
	C570.526855,410.497955 572.378540,410.710815 572.957275,410.141937 
	C577.998718,405.186829 582.840576,400.028656 587.881714,394.785126 
	C579.198547,386.847260 569.335693,383.180542 557.916260,384.726227 
	C540.473816,387.087189 527.436523,400.644287 525.990784,417.498474 
	C524.465454,435.279327 534.780579,450.166840 553.530090,456.262207 
M647.299744,560.952026 
	C650.812439,558.666443 654.325195,556.380859 657.209106,554.504395 
	C651.253479,548.432739 645.952271,543.028137 640.582947,537.554199 
	C633.313232,541.737854 626.978394,541.391846 622.362061,536.337097 
	C618.280334,531.867737 617.921509,525.129883 621.503662,520.216492 
	C625.766174,514.369873 631.873352,513.675354 640.723450,517.773254 
	C646.040955,512.189270 651.238770,506.731018 656.606812,501.093994 
	C648.889221,493.909760 639.140808,490.280060 627.956970,491.689301 
	C612.677734,493.614655 602.016357,502.074493 597.240356,516.688416 
	C592.525635,531.115112 595.943420,544.229126 607.133057,554.536865 
	C618.628296,565.125977 632.084290,566.999329 647.299744,560.952026 
z"/>
<path fill="#FF2F2F" opacity="1.000000" stroke="none" 
	d="
M550.622864,588.108765 
	C551.986511,588.366760 553.344910,588.658020 554.714783,588.877075 
	C560.388855,589.784302 566.066406,590.669617 572.134583,591.715820 
	C572.452515,597.698730 572.636108,603.545593 572.259949,609.356201 
	C570.634460,634.464417 552.865295,651.455566 527.678894,652.179871 
	C526.846313,652.203857 526.012512,652.189758 525.179321,652.189758 
	C370.032623,652.190125 214.885910,652.171997 59.739208,652.215332 
	C42.285671,652.220215 28.295813,645.895203 18.787144,630.860596 
	C14.286351,623.744202 12.484445,615.837402 12.482355,607.520325 
	C12.458615,513.032471 12.397741,418.544556 12.521301,324.056885 
	C12.553268,299.611237 31.495039,281.253723 56.774948,280.482941 
	C57.774002,280.452484 58.774559,280.468048 59.774418,280.468048 
	C214.921127,280.467499 370.067841,280.482666 525.214539,280.443909 
	C540.619324,280.440063 553.571533,285.429535 563.240295,297.845947 
	C569.781067,306.245605 572.247009,315.958771 572.405579,326.347382 
	C572.555603,336.176025 572.399292,346.009277 572.302429,356.281128 
	C565.336121,356.872711 558.445190,357.023682 551.149780,356.593353 
	C550.748840,346.025970 550.883362,336.037109 550.677246,326.055328 
	C550.613892,322.988800 549.618408,319.941559 549.048584,316.615417 
	C548.932800,316.206573 548.818176,316.067719 548.720947,315.670624 
	C548.529724,315.148346 548.321228,314.884308 548.115479,314.416595 
	C548.118164,314.212921 547.802002,313.956055 547.793335,313.702576 
	C547.548584,313.220886 547.312439,312.992706 547.017334,312.441193 
	C545.284668,310.410980 543.611023,308.704102 541.861328,306.789246 
	C541.580017,306.320496 541.315247,306.225250 540.792847,306.025055 
	C539.982300,305.515289 539.369812,305.276062 538.623901,304.817749 
	C538.011841,304.461487 537.533264,304.324310 536.905396,304.028778 
	C536.756042,303.870422 536.321106,303.887512 536.095703,303.670654 
	C535.268921,303.370117 534.667480,303.286469 533.841003,303.054535 
	C533.437195,302.924164 533.258484,302.942047 532.730530,302.730957 
	C530.393250,302.383972 528.405212,302.162903 526.417114,302.162689 
	C370.339355,302.146698 214.261581,302.144867 58.183834,302.180969 
	C56.072845,302.181458 53.961975,302.678192 51.605740,302.906250 
	C51.360432,302.869232 50.953770,303.153534 50.645348,303.102814 
	C49.605301,303.375427 48.873676,303.698761 47.794655,304.035950 
	C45.604477,305.277649 43.761700,306.505493 41.669159,307.799683 
	C41.121323,308.262817 40.823238,308.659637 40.309746,309.150879 
	C40.094334,309.245331 39.895317,309.671539 39.829720,309.603271 
	C39.764126,309.534973 39.831139,309.728729 39.511822,309.941833 
	C38.119694,312.084747 37.046879,314.014618 35.772900,316.140594 
	C35.457073,316.869263 35.342415,317.401825 35.076023,318.157562 
	C34.938869,318.560120 34.953442,318.739441 34.762276,319.281952 
	C34.396278,321.460693 34.096233,323.276276 34.095806,325.091888 
	C34.073738,418.802979 34.070999,512.514099 34.113926,606.225159 
	C34.114971,608.510803 34.653938,610.796265 34.913155,613.458008 
	C35.095032,614.281677 35.305767,614.729065 35.469238,615.374817 
	C35.476910,615.865906 35.639748,616.074646 35.899635,616.441040 
	C35.888775,616.682678 36.199497,617.053406 36.180603,617.315491 
	C36.460766,617.987549 36.759823,618.397461 37.034569,618.878235 
	C37.010254,618.949036 37.154934,618.987793 37.192703,619.304443 
	C37.779175,620.259766 38.327873,620.898438 38.941345,621.837158 
	C40.535267,623.467957 42.064419,624.798645 43.742691,626.380005 
	C44.243332,626.768433 44.594856,626.906128 44.967999,627.025940 
	C44.989620,627.008118 44.967171,627.059265 45.050446,627.259277 
	C45.133720,627.459351 45.490742,627.703796 45.490742,627.703796 
	C45.490742,627.703796 45.923180,627.688782 46.135696,627.866821 
	C46.532925,628.051636 46.717632,628.058350 47.004150,628.218384 
	C47.105968,628.371704 47.438992,628.520264 47.438992,628.520264 
	C47.438992,628.520264 47.788597,628.416931 48.100563,628.642334 
	C48.667431,628.896912 48.922329,628.926208 49.398216,629.145020 
	C50.374699,629.444580 51.130203,629.554504 52.201393,629.845093 
	C52.996098,630.031982 53.475117,630.038269 54.327469,630.211670 
	C56.527245,630.468750 58.353680,630.637390 60.180130,630.637573 
	C215.002274,630.649597 369.824402,630.651123 524.646545,630.622437 
	C526.781189,630.622070 528.915710,630.229858 531.314453,630.060669 
	C531.734009,630.013672 531.889282,629.926392 532.352539,629.885986 
	C533.595886,629.621277 534.531250,629.309753 535.845032,628.949829 
	C542.484375,626.561096 547.038025,622.536499 549.226624,615.730469 
	C549.603516,614.682739 549.751831,613.857544 550.064575,612.791626 
	C550.189819,612.175354 550.150757,611.799866 550.313110,611.026489 
	C550.482422,603.875854 550.450439,597.123230 550.538330,590.005493 
	C550.646423,589.129944 550.634644,588.619324 550.622864,588.108765 
z"/>
<path fill="#FE3131" opacity="1.000000" stroke="none" 
	d="
M322.924255,435.054443 
	C323.058319,442.170197 322.619385,449.357452 323.496002,456.380554 
	C324.289917,462.741394 323.212402,468.375061 321.743378,474.543396 
	C319.863251,482.438110 320.643250,490.966400 319.852356,499.815857 
	C315.237732,502.735809 311.169434,505.334167 306.809937,507.280365 
	C304.373657,508.367981 303.106262,509.331787 303.117340,512.229431 
	C303.219666,539.020935 303.217896,565.813110 303.123413,592.604736 
	C303.112244,595.775879 303.983704,596.970093 307.338989,596.965698 
	C369.908813,596.883606 432.479401,597.014954 495.047485,596.675110 
	C499.540070,596.650757 504.014771,593.343567 508.497803,591.562805 
	C517.135315,591.511963 525.772888,591.461060 534.723572,591.839050 
	C530.416199,603.030212 522.123718,610.099976 511.653198,615.224121 
	C510.930145,615.462341 510.477692,615.727905 509.705261,616.014404 
	C509.208466,616.155457 509.031647,616.275696 508.605896,616.346558 
	C507.928009,616.533020 507.499115,616.768860 506.744324,617.013062 
	C506.234344,617.136902 506.050262,617.252380 505.591248,617.314575 
	C504.815430,617.483521 504.314575,617.705811 503.590820,617.874512 
	C503.367859,617.820984 502.978241,618.062866 502.514832,617.998291 
	C497.893280,618.076782 493.735107,618.344238 489.576904,618.344971 
	C364.692596,618.367188 239.808289,618.373718 114.923996,618.344727 
	C103.609375,618.342163 92.294815,618.083496 80.857689,617.834717 
	C80.735146,617.725708 80.441643,617.872070 80.191078,617.662964 
	C79.311859,617.358154 78.683205,617.262512 77.875778,617.018677 
	C77.697014,616.870422 77.234474,616.912598 77.016815,616.700012 
	C76.214684,616.372742 75.630211,616.258057 74.777130,615.906738 
	C62.427032,611.104126 54.304256,602.430847 48.892941,590.661438 
	C48.634613,589.835205 48.357445,589.311218 48.095268,588.548767 
	C48.110264,588.310242 47.806293,587.941345 47.842625,587.615234 
	C47.627789,586.691162 47.376621,586.093201 47.195328,585.364136 
	C47.265198,585.233032 47.059731,585.018494 47.086395,584.627197 
	C46.774509,582.719849 46.435963,581.203796 46.177296,579.513489 
	C46.257175,579.339172 46.051849,579.015381 46.141441,578.552246 
	C46.200768,556.292114 46.155602,534.495239 46.143185,512.698303 
	C46.112862,459.456696 46.097687,406.215118 46.214630,352.750854 
	C46.268826,352.207092 46.184814,351.885956 46.330242,351.263367 
	C46.684002,349.982544 46.808327,349.003143 47.063389,347.865540 
	C47.194130,347.707275 47.105953,347.306335 47.301319,347.077728 
	C47.563950,346.268341 47.631218,345.687531 47.864220,344.874664 
	C48.031071,344.452423 48.032181,344.262299 48.245049,343.883972 
	C48.563923,343.154022 48.671040,342.612274 49.007774,341.793091 
	C54.416523,329.673615 63.216438,321.605530 75.349159,316.747681 
	C76.104988,316.522247 76.587166,316.275085 77.334160,316.051971 
	C77.750885,315.984619 77.902786,315.893250 78.370430,315.844238 
	C79.475998,315.609406 80.265839,315.332214 81.407059,315.103607 
	C82.202980,315.009460 82.647514,314.866699 83.550446,314.771545 
	C87.668564,314.666412 91.328262,314.380768 94.988007,314.380096 
	C224.140976,314.357086 353.293945,314.354950 482.446899,314.378265 
	C488.937500,314.379456 495.428009,314.633728 502.225586,314.925201 
	C502.986237,315.074463 503.439880,315.068695 504.103394,315.221649 
	C504.816498,315.432159 505.319824,315.483948 506.139404,315.731384 
	C506.944550,315.970459 507.433441,316.013916 508.017395,316.191498 
	C508.112488,316.325623 508.419220,316.432648 508.419220,316.432648 
	C508.419220,316.432648 508.711029,316.290192 509.024963,316.539673 
	C512.487244,318.223541 515.635559,319.657928 518.913208,321.324982 
	C519.361633,321.691345 519.680725,321.825012 520.140869,322.208740 
	C520.621399,322.616760 520.960999,322.774750 521.423279,323.177399 
	C522.011475,323.685638 522.476990,323.949158 523.095764,324.500824 
	C527.578186,330.882385 531.907410,336.975800 536.210938,343.351868 
	C536.440857,344.132935 536.696472,344.631348 536.924438,345.378662 
	C536.987610,345.767517 537.078552,345.907532 537.130249,346.371826 
	C537.377808,347.509979 537.664429,348.323822 537.901001,349.370117 
	C537.850891,349.602600 538.075256,350.021973 538.021362,350.428131 
	C538.291321,352.928192 538.615112,355.022095 538.849731,357.426971 
	C538.834351,358.157898 538.908264,358.577820 538.907043,359.353455 
	C538.866516,359.948975 538.901062,360.188843 538.935669,360.428711 
	C535.413269,362.821045 532.230957,362.388794 528.456421,360.344513 
	C525.244080,358.604736 521.272522,358.266571 517.280701,356.785522 
	C515.146118,343.523132 506.659912,335.966278 493.932892,335.952545 
	C462.464905,335.918610 430.996887,335.941162 399.528870,335.941132 
	C369.059845,335.941101 338.590790,335.962219 308.121857,335.907928 
	C305.160583,335.902649 303.097870,335.959229 303.119324,339.990417 
	C303.263000,366.962219 303.155182,393.935394 303.307922,420.907104 
	C303.315552,422.253143 304.687408,424.054840 305.931671,424.850739 
	C311.495239,428.409332 317.243011,431.679871 322.924255,435.054443 
M218.500000,335.951141 
	C176.005951,335.951416 133.511902,335.939087 91.017853,335.960266 
	C79.428329,335.966034 69.697868,342.516083 68.444794,353.124603 
	C67.230804,363.402222 68.181564,373.935516 68.181564,384.881195 
	C80.537254,384.881195 92.661613,384.877594 104.785973,384.882202 
	C117.344124,384.886963 120.558937,388.047119 120.561272,400.444305 
	C120.569588,444.604889 120.567474,488.765503 120.566864,532.926086 
	C120.566849,534.258972 120.620537,535.598511 120.511803,536.923645 
	C119.962158,543.622314 115.934761,547.606934 109.214241,547.897522 
	C105.222015,548.070251 101.216827,547.948792 97.217468,547.950134 
	C87.599968,547.953430 77.982468,547.951172 67.738411,547.951172 
	C67.738411,556.461121 67.721756,564.406799 67.741936,572.352356 
	C67.781654,587.995300 76.622025,596.876648 92.169792,596.878235 
	C153.328064,596.884460 214.486328,596.880859 275.644592,596.880920 
	C277.426422,596.880981 279.208221,596.880920 281.184723,596.880920 
	C281.378021,595.204407 281.619873,594.080078 281.620758,592.955688 
	C281.642334,566.126038 281.591400,539.296204 281.706055,512.467041 
	C281.718384,509.580811 280.678589,508.551941 278.063049,507.632385 
	C260.700409,501.527985 249.065933,485.399872 248.766617,467.402252 
	C248.459778,448.950745 259.411652,432.442993 276.837219,425.845154 
	C280.598877,424.420837 281.774597,422.723358 281.742828,418.727875 
	C281.538544,393.066345 281.643158,367.402405 281.628326,341.739258 
	C281.627289,339.957153 281.481201,338.175110 281.383057,335.951111 
	C260.435120,335.951111 239.967560,335.951111 218.500000,335.951141 
M87.477707,526.120483 
	C91.086868,526.120483 94.696030,526.120483 98.498276,526.120483 
	C98.498276,486.053680 98.498276,446.652893 98.498276,407.129517 
	C88.137108,407.129517 78.110275,407.129517 68.149605,407.129517 
	C68.149605,446.964020 68.149605,486.355957 68.149605,526.120544 
	C74.535782,526.120544 80.510834,526.120544 87.477707,526.120483 
M271.041199,460.785614 
	C270.845703,462.100494 270.522186,463.410858 270.475250,464.731018 
	C270.144012,474.048218 273.801910,481.485443 282.075378,485.775848 
	C290.053802,489.913330 298.306671,489.424255 305.586914,483.826691 
	C312.973297,478.147522 315.821442,470.481995 313.710419,461.273224 
	C311.600342,452.068817 303.175598,445.039429 293.734772,444.407654 
	C283.896240,443.749268 275.394104,449.661194 271.041199,460.785614 
z"/>
<path fill="#F8F7F7" opacity="1.000000" stroke="none" 
	d="
M47.059731,585.018494 
	C47.059731,585.018494 47.265198,585.233032 47.171722,585.704468 
	C47.320934,586.764343 47.563622,587.352844 47.806297,587.941345 
	C47.806293,587.941345 48.110264,588.310242 48.082726,588.858887 
	C48.328159,589.926208 48.601128,590.445007 48.874100,590.963745 
	C54.304256,602.430847 62.427032,611.104126 74.978683,616.137390 
	C76.044067,616.707336 76.639275,616.809937 77.234474,616.912598 
	C77.234474,616.912598 77.697014,616.870422 78.102798,617.253052 
	C79.152939,617.714417 79.797295,617.793274 80.441643,617.872070 
	C80.441643,617.872070 80.735146,617.725708 81.145378,618.143188 
	C83.195869,618.708191 84.836113,618.984558 86.476379,618.984802 
	C223.572678,619.004761 360.668976,619.006897 497.765289,618.964478 
	C499.503021,618.963928 501.240601,618.376404 502.978241,618.062866 
	C502.978241,618.062866 503.367859,617.820984 503.871979,617.891602 
	C504.872772,617.764038 505.369476,617.565979 505.866180,617.367920 
	C506.050262,617.252380 506.234344,617.136902 506.991180,617.006470 
	C507.994202,616.792969 508.424530,616.594421 508.854858,616.395935 
	C509.031647,616.275696 509.208466,616.155457 509.974060,616.006836 
	C511.016510,615.736084 511.470154,615.493774 511.923798,615.251526 
	C522.123718,610.099976 530.416199,603.030212 535.193970,591.981812 
	C540.206848,590.518860 545.062500,589.341858 550.270508,588.136841 
	C550.634644,588.619324 550.646423,589.129944 550.372681,590.335571 
	C550.095337,597.828491 550.103516,604.626465 550.111694,611.424377 
	C550.150757,611.799866 550.189819,612.175354 549.821167,612.999939 
	C549.274902,614.283691 549.136475,615.118347 548.998047,615.953003 
	C547.038025,622.536499 542.484375,626.561096 535.544067,628.947632 
	C533.924622,629.275696 532.984619,629.557434 532.044617,629.839172 
	C531.889282,629.926392 531.734009,630.013672 530.842041,630.051636 
	C455.160126,629.999939 380.214935,629.990112 305.269714,629.997131 
	C221.497849,630.004944 137.725998,630.028076 53.954132,630.044556 
	C53.475117,630.038269 52.996098,630.031982 51.987671,629.652466 
	C50.697914,629.171265 49.937569,629.063354 49.177227,628.955444 
	C48.922329,628.926208 48.667431,628.896912 47.977150,628.537842 
	C47.341759,628.101746 47.128616,628.054138 46.902336,628.065125 
	C46.717632,628.058350 46.532925,628.051636 46.018005,627.707275 
	C45.482876,627.184265 45.242672,627.080811 44.967171,627.059265 
	C44.967171,627.059265 44.989620,627.008118 44.822407,626.774902 
	C44.301323,626.404175 43.947453,626.266724 43.593575,626.129272 
	C42.064419,624.798645 40.535267,623.467957 38.905365,621.511353 
	C38.254715,620.252930 37.704819,619.620361 37.154930,618.987793 
	C37.154934,618.987793 37.010254,618.949036 37.002632,618.623779 
	C36.729836,617.883484 36.464664,617.468445 36.199493,617.053406 
	C36.199497,617.053406 35.888775,616.682678 35.891613,616.250061 
	C35.850143,615.555603 35.724163,615.341919 35.516506,615.176514 
	C35.305767,614.729065 35.095032,614.281677 34.934147,612.985107 
	C34.978672,514.396912 34.973343,416.657867 34.968014,318.918793 
	C34.953442,318.739441 34.938869,318.560120 35.282574,317.970642 
	C35.751923,317.021851 35.862991,316.483154 35.974064,315.944458 
	C37.046879,314.014618 38.119694,312.084747 39.510910,309.927368 
	C39.829315,309.699860 39.895317,309.671539 39.895317,309.671539 
	C39.895317,309.671539 40.094334,309.245331 40.559891,309.081604 
	C41.323277,308.523010 41.621098,308.128174 41.918919,307.733337 
	C43.761700,306.505493 45.604477,305.277649 48.105110,304.030640 
	C49.493229,303.725525 50.223499,303.439514 50.953770,303.153534 
	C50.953770,303.153534 51.360432,302.869232 52.086124,302.926208 
	C90.626877,302.989594 128.441925,303.004089 166.256989,303.000946 
	C288.531219,302.990784 410.805481,302.974121 533.079712,302.959961 
	C533.258484,302.942047 533.437195,302.924164 534.056641,303.276733 
	C535.105225,303.727295 535.713196,303.807404 536.321106,303.887512 
	C536.321106,303.887512 536.756042,303.870422 537.054810,304.229034 
	C537.821533,304.737366 538.289429,304.887115 538.757324,305.036835 
	C539.369812,305.276062 539.982300,305.515289 540.917480,306.182312 
	C541.438171,306.801025 541.670593,306.930054 541.937378,306.997223 
	C543.611023,308.704102 545.284668,310.410980 547.061157,312.681458 
	C547.284241,313.565033 547.496948,313.802002 547.802002,313.956055 
	C547.802002,313.956055 548.118164,314.212921 548.131836,314.668457 
	C548.222656,315.467834 548.408691,315.736145 548.703613,315.928894 
	C548.818176,316.067719 548.932800,316.206573 549.031494,317.058228 
	C549.363708,330.821655 549.711914,343.872284 550.060120,356.922913 
	C546.965210,357.948029 543.870300,358.973114 540.277710,359.777832 
	C539.576111,359.282471 539.310120,359.095917 538.982178,358.997772 
	C538.908264,358.577820 538.834351,358.157898 538.870850,357.002991 
	C538.679321,354.186035 538.377258,352.104004 538.075256,350.021973 
	C538.075256,350.021973 537.850891,349.602600 537.916992,349.031616 
	C537.711914,347.656250 537.440674,346.851898 537.169434,346.047516 
	C537.078552,345.907532 536.987610,345.767517 536.930481,345.089233 
	C536.721741,344.057068 536.479187,343.563141 536.236633,343.069214 
	C531.907410,336.975800 527.578186,330.882385 523.000732,324.235535 
	C522.268494,323.432312 521.784546,323.182495 521.300598,322.932709 
	C520.960999,322.774750 520.621399,322.616760 520.001099,321.987061 
	C519.408203,321.374329 519.096008,321.233307 518.783875,321.092285 
	C515.635559,319.657928 512.487244,318.223541 508.908600,316.466309 
	C508.299530,316.072388 508.114197,316.043701 507.922302,316.057373 
	C507.433441,316.013916 506.944550,315.970459 505.938599,315.573303 
	C504.912170,315.167389 504.402863,315.115173 503.893555,315.062927 
	C503.439880,315.068695 502.986237,315.074463 501.906677,314.676514 
	C499.959503,314.179810 498.638153,314.005554 497.316833,314.005432 
	C360.846497,313.993011 224.376144,313.991241 87.905815,314.023956 
	C86.301170,314.024353 84.696632,314.480530 83.092049,314.723969 
	C82.647514,314.866699 82.202980,315.009460 81.081329,315.085083 
	C79.621048,315.279266 78.837868,315.540558 78.054688,315.801880 
	C77.902786,315.893250 77.750885,315.984619 77.055382,316.051331 
	C76.033028,316.259766 75.554268,316.492859 75.075508,316.725952 
	C63.216438,321.605530 54.416523,329.673615 48.799332,341.979980 
	C48.251938,342.986969 48.142612,343.529572 48.033287,344.072174 
	C48.032181,344.262299 48.031071,344.452423 47.663177,345.092560 
	C47.232914,346.130463 47.169434,346.718414 47.105953,347.306335 
	C47.105953,347.306335 47.194130,347.707275 46.791336,348.127258 
	C46.292625,349.553070 46.196716,350.558960 46.100803,351.564819 
	C46.184814,351.885956 46.268826,352.207092 45.902412,353.036499 
	C45.300888,354.850708 45.017967,356.156677 45.017582,357.462677 
	C44.996315,429.761932 44.992119,502.061218 45.042637,574.360413 
	C45.043720,575.912354 45.700794,577.463745 46.051849,579.015381 
	C46.051849,579.015381 46.257175,579.339172 46.147575,579.932434 
	C46.378563,582.023315 46.719147,583.520874 47.059731,585.018494 
z"/>
<path fill="#FBFAFA" opacity="1.000000" stroke="none" 
	d="
M323.051849,434.596008 
	C317.243011,431.679871 311.495239,428.409332 305.931671,424.850739 
	C304.687408,424.054840 303.315552,422.253143 303.307922,420.907104 
	C303.155182,393.935394 303.263000,366.962219 303.119324,339.990417 
	C303.097870,335.959229 305.160583,335.902649 308.121857,335.907928 
	C338.590790,335.962219 369.059845,335.941101 399.528870,335.941132 
	C430.996887,335.941162 462.464905,335.918610 493.932892,335.952545 
	C506.659912,335.966278 515.146118,343.523132 516.892456,356.661865 
	C509.709290,357.124512 502.521027,356.765411 495.419159,357.389526 
	C490.049713,357.861389 484.790680,360.501465 479.482483,360.501373 
	C474.174469,360.501312 468.887024,358.310364 463.547546,357.309113 
	C461.618744,356.947388 459.562561,357.183136 457.569092,357.262329 
	C449.251953,357.592682 441.465485,357.218994 433.906799,352.176392 
	C426.193939,347.030975 416.667206,346.346619 407.440094,346.288055 
	C389.471436,346.174011 371.501251,346.187042 353.532257,346.269165 
	C335.420258,346.351929 323.486908,358.148071 323.328552,376.241333 
	C323.159698,395.539032 323.219452,414.838745 323.051849,434.596008 
z"/>
<path fill="#F92E2F" opacity="1.000000" stroke="none" 
	d="
M388.999969,374.317535 
	C397.483246,374.489532 405.530731,374.085052 413.435242,374.964935 
	C426.111725,376.376099 433.641571,384.878998 434.623077,397.611145 
	C435.783630,412.666412 423.631714,425.562378 407.584290,425.990326 
	C398.287323,426.238251 388.978363,426.035370 379.029541,426.035370 
	C379.029541,436.080139 379.029541,445.789429 379.029541,455.909485 
	C369.543182,455.909485 360.699219,455.909485 351.537567,455.909485 
	C351.448151,454.315399 351.295593,452.853882 351.294678,451.392273 
	C351.279816,427.416229 351.386932,403.439362 351.187683,379.464966 
	C351.152496,375.232056 352.441681,374.123352 356.534180,374.226898 
	C367.183411,374.496246 377.843964,374.317444 388.999969,374.317535 
M404.683868,396.415924 
	C396.145203,396.415924 387.606537,396.415924 378.993988,396.415924 
	C378.993988,399.199249 378.993988,401.461304 378.993988,404.279755 
	C387.165955,404.279755 395.102905,404.500549 403.019226,404.192169 
	C407.367950,404.022797 408.196930,401.033661 404.683868,396.415924 
z"/>
<path fill="#F8F7F7" opacity="1.000000" stroke="none" 
	d="
M507.987854,591.501343 
	C504.014771,593.343567 499.540070,596.650757 495.047485,596.675110 
	C432.479401,597.014954 369.908813,596.883606 307.338989,596.965698 
	C303.983704,596.970093 303.112244,595.775879 303.123413,592.604736 
	C303.217896,565.813110 303.219666,539.020935 303.117340,512.229431 
	C303.106262,509.331787 304.373657,508.367981 306.809937,507.280365 
	C311.169434,505.334167 315.237732,502.735809 319.734406,500.282440 
	C320.610016,507.155518 321.565674,514.005371 326.132660,519.801208 
	C329.961761,524.660583 334.566162,528.366943 340.695892,529.656799 
	C343.916656,530.334595 344.878845,531.878723 344.792267,535.122437 
	C344.561493,543.769470 344.663879,552.427246 344.727539,561.080078 
	C344.863892,579.608093 356.491760,591.243958 375.086670,591.383301 
	C383.902740,591.449341 392.765137,591.796326 401.520111,591.029236 
	C406.494080,590.593445 411.285980,586.998474 416.173553,586.967224 
	C420.877533,586.937195 425.552551,590.761780 430.322174,590.964355 
	C442.382233,591.476562 454.602936,592.989502 466.490967,589.177795 
	C467.262634,588.930359 468.225555,588.535583 468.882385,588.783813 
	C481.491150,593.549500 494.618469,590.546143 507.987854,591.501343 
z"/>
<path fill="#F82E30" opacity="1.000000" stroke="none" 
	d="
M768.961731,511.557251 
	C768.082031,513.645264 767.703064,515.626770 767.218323,518.161316 
	C781.961243,518.161316 795.885742,518.161316 810.276611,518.161316 
	C810.276611,524.621155 810.276611,530.660400 810.276611,537.318848 
	C796.328979,537.318848 782.268250,537.318848 767.874878,537.318848 
	C767.874878,539.825378 767.874878,541.728333 767.874878,544.259521 
	C781.962463,544.259521 796.013977,544.259521 810.399780,544.259521 
	C810.399780,550.787842 810.399780,556.699036 810.399780,563.020996 
	C788.267151,563.020996 766.089050,563.020996 743.643921,563.020996 
	C743.643921,539.594543 743.643921,516.360291 743.643921,492.719604 
	C765.826843,492.719604 787.859314,492.719604 810.321533,492.719604 
	C810.321533,498.710358 810.321533,504.741760 810.321533,511.450836 
	C796.672913,511.450836 783.067688,511.450836 768.961731,511.557251 
z"/>
<path fill="#F92E2F" opacity="1.000000" stroke="none" 
	d="
M888.420593,531.462646 
	C885.795959,533.228577 883.439819,534.756836 880.422974,536.713623 
	C885.264038,545.210632 890.144592,553.776978 895.571350,563.302002 
	C887.076416,563.302002 879.517456,563.438843 871.973999,563.158813 
	C870.802551,563.115295 869.370911,561.356262 868.626526,560.064026 
	C865.636475,554.873169 862.886658,549.544556 860.015686,544.284485 
	C855.593872,536.183105 855.582581,536.189270 845.399414,537.687073 
	C845.399414,545.951843 845.399414,554.338562 845.399414,563.019043 
	C837.165161,563.019043 829.587646,563.019043 821.645447,563.019043 
	C821.645447,539.694458 821.645447,516.468201 821.645447,492.885101 
	C822.627625,492.709320 823.714294,492.347778 824.801819,492.345398 
	C840.450378,492.310883 856.100342,492.202362 871.747253,492.366058 
	C883.998474,492.494171 892.624084,498.563049 895.130859,508.820862 
	C897.226135,517.395081 895.019653,524.959473 888.420593,531.462646 
M861.361267,518.459412 
	C863.511414,518.451355 865.838440,518.953430 867.760437,518.287109 
	C869.564209,517.661743 870.939758,515.801147 872.503662,514.484009 
	C870.923584,513.381409 869.403015,511.445801 867.752563,511.327881 
	C862.157227,510.928101 856.515930,511.163910 850.892151,511.170959 
	C844.680542,511.178772 844.269287,511.776062 846.200439,518.458862 
	C850.854065,518.458862 855.627380,518.458862 861.361267,518.459412 
z"/>
<path fill="#F92D2F" opacity="1.000000" stroke="none" 
	d="
M497.617767,532.714600 
	C495.481537,534.029297 493.633514,535.119019 491.123810,536.598877 
	C496.034546,545.246033 500.888611,553.793396 506.288544,563.301880 
	C497.682190,563.301880 490.258148,563.438965 482.849426,563.163696 
	C481.649170,563.119019 480.138275,561.457581 479.416718,560.179077 
	C475.653625,553.511414 472.126038,546.711365 468.458160,539.989197 
	C467.098541,537.497437 458.861328,535.676941 457.016754,537.650940 
	C456.178436,538.548035 456.117432,540.384460 456.099915,541.799683 
	C456.013824,548.749695 456.060822,555.701355 456.060822,562.987305 
	C447.981018,562.987305 440.406067,562.987305 432.437836,562.987305 
	C432.437836,539.617004 432.437836,516.277832 432.437836,492.722260 
	C433.441101,492.568909 434.235138,492.342224 435.029327,492.341644 
	C451.178528,492.329956 467.333099,492.092010 483.475250,492.433807 
	C496.205688,492.703400 504.849884,500.010345 506.370331,511.246307 
	C507.528625,519.805359 504.641266,526.967773 497.617767,532.714600 
M456.117126,517.062317 
	C464.491241,517.345825 472.864929,517.709229 481.240234,517.749329 
	C481.858429,517.752258 483.109253,515.329895 482.934875,514.211304 
	C482.764832,513.120544 481.166748,511.449982 480.154877,511.420288 
	C472.274658,511.188843 464.384583,511.292358 456.034241,511.292358 
	C456.034241,513.289673 456.034241,514.742737 456.117126,517.062317 
z"/>
<path fill="#FA2D2F" opacity="1.000000" stroke="none" 
	d="
M520.033325,563.331055 
	C516.428528,563.331177 513.316467,563.331177 509.511993,563.331177 
	C510.636139,559.911926 511.501312,557.250732 512.385559,554.595886 
	C518.805664,535.320190 525.327637,516.077271 531.562500,496.741821 
	C532.693298,493.234833 534.327332,492.143463 537.908936,492.237915 
	C547.229187,492.483612 556.564270,492.180664 565.883179,492.450531 
	C567.544983,492.498688 570.172729,493.896881 570.641235,495.260376 
	C578.162659,517.149963 585.407959,539.134399 592.697449,561.103455 
	C592.847046,561.554199 592.774658,562.078674 592.852966,563.310364 
	C584.688660,563.310364 576.604248,563.428528 568.532471,563.162659 
	C567.509033,563.129089 565.917114,561.203003 565.681274,559.948425 
	C564.933899,555.971863 562.733521,555.021118 558.988098,555.233398 
	C553.675598,555.534546 548.324036,555.499695 543.007141,555.240234 
	C539.739014,555.080811 537.946899,556.136353 537.572144,559.412781 
	C537.186096,562.787720 535.150208,563.590942 532.014099,563.388611 
	C528.199402,563.142456 524.356628,563.330688 520.033325,563.331055 
M545.890442,529.264404 
	C545.319519,531.438965 544.748596,533.613464 544.098877,536.088013 
	C549.299805,536.088013 553.827332,536.088013 558.934998,536.088013 
	C556.599304,527.645752 554.402100,519.704224 552.204895,511.762695 
	C551.711609,511.792786 551.218262,511.822906 550.724976,511.853027 
	C549.183960,517.398621 547.642883,522.944153 545.890442,529.264404 
z"/>
<path fill="#F92E2F" opacity="1.000000" stroke="none" 
	d="
M513.557922,385.321442 
	C514.954712,386.178711 516.713196,387.036316 516.709412,387.886200 
	C516.649536,401.539673 517.212646,415.273651 515.909851,428.823547 
	C514.394226,444.586914 504.987213,453.951843 489.363983,456.299835 
	C482.399780,457.346466 475.007172,457.250336 468.036469,456.184784 
	C454.197479,454.069397 444.911987,445.526611 443.273132,431.694519 
	C441.482788,416.584106 441.874634,401.215149 441.303101,385.625671 
	C449.931152,385.625671 457.510162,385.625671 465.603790,385.625671 
	C465.689026,387.547394 465.828827,389.311646 465.835480,391.076447 
	C465.875031,401.575897 465.705139,412.079773 465.958618,422.573639 
	C466.167480,431.220764 470.418884,436.260040 477.513428,437.091919 
	C486.686646,438.167511 492.405121,433.085785 492.711884,422.919952 
	C493.028381,412.429352 492.821106,401.922943 492.841705,391.423431 
	C492.845245,389.613586 492.842224,387.803711 492.842224,385.318207 
	C499.867523,385.318207 506.483582,385.318207 513.557922,385.321442 
z"/>
<path fill="#F82E30" opacity="1.000000" stroke="none" 
	d="
M718.244568,535.722534 
	C724.420288,544.764893 730.395142,553.508667 737.088562,563.304016 
	C727.971252,563.304016 720.068054,563.438904 712.179138,563.162842 
	C710.955139,563.119995 709.535828,561.380188 708.651550,560.114441 
	C703.810852,553.185242 699.108826,546.159058 694.030640,538.682556 
	C685.388550,545.722290 691.489319,555.157166 688.562012,562.995117 
	C681.220398,562.995117 673.642212,562.995117 665.671143,562.995117 
	C665.671143,539.714783 665.671143,516.484070 665.671143,492.783875 
	C673.266235,492.783875 680.956238,492.783875 689.328979,492.783875 
	C689.328979,499.735657 689.328979,506.626129 689.328979,513.516602 
	C689.716980,513.659485 690.104919,513.802368 690.492920,513.945190 
	C695.740417,508.053345 701.131104,502.280518 706.174194,496.218597 
	C708.643677,493.250275 711.309753,492.047821 715.169739,492.234558 
	C721.446350,492.538177 727.748474,492.316406 735.445007,492.316406 
	C733.206482,494.824707 731.747070,496.478363 730.267944,498.114227 
	C723.899780,505.156891 717.589355,512.253479 711.113159,519.195496 
	C709.323242,521.114014 708.985962,522.547241 710.660828,524.736877 
	C713.288269,528.171936 715.598938,531.849304 718.244568,535.722534 
z"/>
<path fill="#FA2D2F" opacity="1.000000" stroke="none" 
	d="
M633.589111,392.568787 
	C637.364319,386.323486 642.570129,384.448730 649.378906,385.213531 
	C654.275330,385.763550 659.283264,385.320648 665.101990,385.320648 
	C663.909851,386.969147 663.282959,388.025696 662.476868,388.920898 
	C655.786316,396.351440 649.210449,403.894592 642.276245,411.091888 
	C639.495056,413.978668 639.591736,415.992676 641.820129,419.129272 
	C649.346985,429.723999 656.573242,440.532440 663.893677,451.273254 
	C664.792542,452.591919 665.566772,453.995575 666.959412,456.279144 
	C658.153992,456.279144 650.248840,456.415253 642.358337,456.135925 
	C641.142029,456.092865 639.744141,454.315216 638.854736,453.042999 
	C634.005737,446.106476 629.289673,439.077026 624.204590,431.604553 
	C615.792542,438.677460 621.794617,448.067474 618.936340,455.978943 
	C611.629700,455.978943 604.050232,455.978943 596.051025,455.978943 
	C596.051025,432.679688 596.051025,409.302429 596.051025,385.621704 
	C603.694458,385.621704 611.283875,385.621704 619.447266,385.621704 
	C619.447266,392.621429 619.447266,399.528229 619.447266,406.434998 
	C619.854553,406.643158 620.261841,406.851288 620.669128,407.059418 
	C624.898010,402.318420 629.126953,397.577423 633.589111,392.568787 
z"/>
<path fill="#F92E2F" opacity="1.000000" stroke="none" 
	d="
M406.997253,481.318176 
	C412.953949,481.318268 418.411224,481.318268 424.213165,481.318268 
	C424.213165,488.690155 424.213165,495.573334 424.213165,503.062469 
	C417.672363,503.062469 411.383728,503.279022 405.119263,502.983307 
	C401.201874,502.798370 399.966003,503.983002 400.012115,508.006226 
	C400.219910,526.135559 400.102814,544.268555 400.102814,562.865967 
	C390.983582,562.865967 382.149078,562.865967 372.850464,562.865967 
	C372.850464,543.147461 372.850464,523.569031 372.850464,503.352905 
	C364.709717,503.352905 356.988556,503.352905 348.820862,503.352905 
	C348.820862,495.856262 348.820862,488.985504 348.820862,481.318085 
	C368.029663,481.318085 387.263794,481.318085 406.997253,481.318176 
z"/>
<path fill="#F82E30" opacity="1.000000" stroke="none" 
	d="
M553.123047,456.166260 
	C534.780579,450.166840 524.465454,435.279327 525.990784,417.498474 
	C527.436523,400.644287 540.473816,387.087189 557.916260,384.726227 
	C569.335693,383.180542 579.198547,386.847260 587.881714,394.785126 
	C582.840576,400.028656 577.998718,405.186829 572.957275,410.141937 
	C572.378540,410.710815 570.526855,410.497955 569.534424,410.050476 
	C562.223633,406.753906 556.136292,407.780212 552.075378,413.171844 
	C548.508728,417.907318 548.830383,424.886932 552.819885,429.326508 
	C557.206665,434.208160 563.737549,434.730652 570.529724,430.747101 
	C570.816040,430.579193 571.120728,430.442413 570.948303,430.530518 
	C576.380798,436.049469 581.702820,441.456146 587.472473,447.317566 
	C578.332153,456.126129 566.800293,459.126984 553.123047,456.166260 
z"/>
<path fill="#F92D2F" opacity="1.000000" stroke="none" 
	d="
M646.950562,561.106934 
	C632.084290,566.999329 618.628296,565.125977 607.133057,554.536865 
	C595.943420,544.229126 592.525635,531.115112 597.240356,516.688416 
	C602.016357,502.074493 612.677734,493.614655 627.956970,491.689301 
	C639.140808,490.280060 648.889221,493.909760 656.606812,501.093994 
	C651.238770,506.731018 646.040955,512.189270 640.723450,517.773254 
	C631.873352,513.675354 625.766174,514.369873 621.503662,520.216492 
	C617.921509,525.129883 618.280334,531.867737 622.362061,536.337097 
	C626.978394,541.391846 633.313232,541.737854 640.582947,537.554199 
	C645.952271,543.028137 651.253479,548.432739 657.209106,554.504395 
	C654.325195,556.380859 650.812439,558.666443 646.950562,561.106934 
z"/>
<path fill="#FAF6F6" opacity="1.000000" stroke="none" 
	d="
M550.216309,356.973633 
	C549.711914,343.872284 549.363708,330.821655 549.032593,317.328247 
	C549.618408,319.941559 550.613892,322.988800 550.677246,326.055328 
	C550.883362,336.037109 550.748840,346.025970 550.717041,356.473938 
	C550.688721,356.935822 550.372437,357.024384 550.216309,356.973633 
z"/>
<path fill="#FAF6F6" opacity="1.000000" stroke="none" 
	d="
M538.907043,359.353455 
	C539.310120,359.095917 539.576111,359.282471 539.891235,359.778137 
	C539.845154,360.120758 539.687805,360.242706 539.233093,360.396698 
	C538.901062,360.188843 538.866516,359.948975 538.907043,359.353455 
z"/>
<path fill="#FAF6F6" opacity="1.000000" stroke="none" 
	d="
M532.730530,302.730957 
	C410.805481,302.974121 288.531219,302.990784 166.256989,303.000946 
	C128.441925,303.004089 90.626877,302.989594 52.331432,302.963257 
	C53.961975,302.678192 56.072845,302.181458 58.183834,302.180969 
	C214.261581,302.144867 370.339355,302.146698 526.417114,302.162689 
	C528.405212,302.162903 530.393250,302.383972 532.730530,302.730957 
z"/>
<path fill="#FAF6F6" opacity="1.000000" stroke="none" 
	d="
M54.327469,630.211670 
	C137.725998,630.028076 221.497849,630.004944 305.269714,629.997131 
	C380.214935,629.990112 455.160126,629.999939 530.577820,630.011414 
	C528.915710,630.229858 526.781189,630.622070 524.646545,630.622437 
	C369.824402,630.651123 215.002274,630.649597 60.180130,630.637573 
	C58.353680,630.637390 56.527245,630.468750 54.327469,630.211670 
z"/>
<path fill="#FAF6F6" opacity="1.000000" stroke="none" 
	d="
M34.762276,319.281952 
	C34.973343,416.657867 34.978672,514.396912 34.963005,612.608887 
	C34.653938,610.796265 34.114971,608.510803 34.113926,606.225159 
	C34.070999,512.514099 34.073738,418.802979 34.095806,325.091888 
	C34.096233,323.276276 34.396278,321.460693 34.762276,319.281952 
z"/>
<path fill="#FAF6F6" opacity="1.000000" stroke="none" 
	d="
M550.313110,611.026489 
	C550.103516,604.626465 550.095337,597.828491 550.252808,590.700562 
	C550.450439,597.123230 550.482422,603.875854 550.313110,611.026489 
z"/>
<path fill="#FAF6F6" opacity="1.000000" stroke="none" 
	d="
M532.352539,629.885986 
	C532.984619,629.557434 533.924622,629.275696 535.165649,628.996094 
	C534.531250,629.309753 533.595886,629.621277 532.352539,629.885986 
z"/>
<path fill="#FAF6F6" opacity="1.000000" stroke="none" 
	d="
M50.645348,303.102814 
	C50.223499,303.439514 49.493229,303.725525 48.452507,304.016785 
	C48.873676,303.698761 49.605301,303.375427 50.645348,303.102814 
z"/>
<path fill="#FAF6F6" opacity="1.000000" stroke="none" 
	d="
M549.226685,615.730469 
	C549.136475,615.118347 549.274902,614.283691 549.656738,613.240723 
	C549.751831,613.857544 549.603516,614.682739 549.226685,615.730469 
z"/>
<path fill="#FAF6F6" opacity="1.000000" stroke="none" 
	d="
M37.192696,619.304443 
	C37.704819,619.620361 38.254715,620.252930 38.840591,621.211304 
	C38.327873,620.898438 37.779175,620.259766 37.192696,619.304443 
z"/>
<path fill="#FAF6F6" opacity="1.000000" stroke="none" 
	d="
M49.398209,629.145081 
	C49.937569,629.063354 50.697914,629.171265 51.671982,629.471802 
	C51.130203,629.554504 50.374699,629.444580 49.398209,629.145081 
z"/>
<path fill="#FAF6F6" opacity="1.000000" stroke="none" 
	d="
M36.180603,617.315491 
	C36.464664,617.468445 36.729836,617.883484 37.026943,618.552979 
	C36.759823,618.397461 36.460766,617.987549 36.180603,617.315491 
z"/>
<path fill="#FAF6F6" opacity="1.000000" stroke="none" 
	d="
M538.623901,304.817749 
	C538.289429,304.887115 537.821533,304.737366 537.204163,304.387390 
	C537.533264,304.324310 538.011841,304.461487 538.623901,304.817749 
z"/>
<path fill="#FAF6F6" opacity="1.000000" stroke="none" 
	d="
M35.772900,316.140594 
	C35.862991,316.483154 35.751923,317.021851 35.434303,317.747437 
	C35.342415,317.401825 35.457073,316.869263 35.772900,316.140594 
z"/>
<path fill="#FAF6F6" opacity="1.000000" stroke="none" 
	d="
M41.669159,307.799683 
	C41.621098,308.128174 41.323277,308.523010 40.775307,308.987152 
	C40.823238,308.659637 41.121323,308.262817 41.669159,307.799683 
z"/>
<path fill="#FAF6F6" opacity="1.000000" stroke="none" 
	d="
M536.095703,303.670654 
	C535.713196,303.807404 535.105225,303.727295 534.281677,303.424988 
	C534.667480,303.286469 535.268921,303.370117 536.095703,303.670654 
z"/>
<path fill="#FAF6F6" opacity="1.000000" stroke="none" 
	d="
M35.469246,615.374817 
	C35.724163,615.341919 35.850143,615.555603 35.902473,616.008423 
	C35.639748,616.074646 35.476910,615.865906 35.469246,615.374817 
z"/>
<path fill="#FAF6F6" opacity="1.000000" stroke="none" 
	d="
M39.829720,309.603271 
	C39.895317,309.671539 39.829315,309.699860 39.830227,309.714294 
	C39.831139,309.728729 39.764126,309.534973 39.829720,309.603271 
z"/>
<path fill="#FAF6F6" opacity="1.000000" stroke="none" 
	d="
M547.793335,313.702576 
	C547.496948,313.802002 547.284241,313.565033 547.120117,313.004822 
	C547.312439,312.992706 547.548584,313.220886 547.793335,313.702576 
z"/>
<path fill="#FAF6F6" opacity="1.000000" stroke="none" 
	d="
M541.861328,306.789246 
	C541.670593,306.930054 541.438171,306.801025 541.115479,306.452820 
	C541.315247,306.225250 541.580017,306.320496 541.861328,306.789246 
z"/>
<path fill="#FAF6F6" opacity="1.000000" stroke="none" 
	d="
M548.720947,315.670624 
	C548.408691,315.736145 548.222656,315.467834 548.129150,314.872131 
	C548.321228,314.884308 548.529724,315.148346 548.720947,315.670624 
z"/>
<path fill="#FAF6F6" opacity="1.000000" stroke="none" 
	d="
M43.742695,626.380005 
	C43.947453,626.266724 44.301323,626.404175 44.800785,626.792725 
	C44.594856,626.906128 44.243332,626.768433 43.742695,626.380005 
z"/>
<path fill="#FAF6F6" opacity="1.000000" stroke="none" 
	d="
M45.050446,627.259277 
	C45.242672,627.080811 45.482876,627.184265 45.805485,627.529175 
	C45.923180,627.688782 45.490742,627.703796 45.490742,627.703796 
	C45.490742,627.703796 45.133720,627.459351 45.050446,627.259277 
z"/>
<path fill="#FAF6F6" opacity="1.000000" stroke="none" 
	d="
M47.004150,628.218384 
	C47.128616,628.054138 47.341759,628.101746 47.665184,628.312439 
	C47.788597,628.416931 47.438992,628.520264 47.438992,628.520264 
	C47.438992,628.520264 47.105968,628.371704 47.004150,628.218384 
z"/>
<path fill="#FEFCFC" opacity="1.000000" stroke="none" 
	d="
M219.000000,335.951111 
	C239.967560,335.951111 260.435120,335.951111 281.383057,335.951111 
	C281.481201,338.175110 281.627289,339.957153 281.628326,341.739258 
	C281.643158,367.402405 281.538544,393.066345 281.742828,418.727875 
	C281.774597,422.723358 280.598877,424.420837 276.837219,425.845154 
	C259.411652,432.442993 248.459778,448.950745 248.766617,467.402252 
	C249.065933,485.399872 260.700409,501.527985 278.063049,507.632385 
	C280.678589,508.551941 281.718384,509.580811 281.706055,512.467041 
	C281.591400,539.296204 281.642334,566.126038 281.620758,592.955688 
	C281.619873,594.080078 281.378021,595.204407 281.184723,596.880920 
	C279.208221,596.880920 277.426422,596.880981 275.644592,596.880920 
	C214.486328,596.880859 153.328064,596.884460 92.169792,596.878235 
	C76.622025,596.876648 67.781654,587.995300 67.741936,572.352356 
	C67.721756,564.406799 67.738411,556.461121 67.738411,547.951172 
	C77.982468,547.951172 87.599968,547.953430 97.217468,547.950134 
	C101.216827,547.948792 105.222015,548.070251 109.214241,547.897522 
	C115.934761,547.606934 119.962158,543.622314 120.511803,536.923645 
	C120.620537,535.598511 120.566849,534.258972 120.566864,532.926086 
	C120.567474,488.765503 120.569588,444.604889 120.561272,400.444305 
	C120.558937,388.047119 117.344124,384.886963 104.785973,384.882202 
	C92.661613,384.877594 80.537254,384.881195 68.181564,384.881195 
	C68.181564,373.935516 67.230804,363.402222 68.444794,353.124603 
	C69.697868,342.516083 79.428329,335.966034 91.017853,335.960266 
	C133.511902,335.939087 176.005951,335.951416 219.000000,335.951111 
M199.629990,581.238098 
	C224.462173,572.225952 237.122482,546.391357 228.674423,521.970154 
	C220.353729,497.917175 194.153427,484.696411 170.296524,492.512482 
	C145.505676,500.634460 132.290131,526.800964 140.321136,551.863037 
	C148.076797,576.065857 174.048080,589.199158 199.629990,581.238098 
M183.583267,349.165344 
	C180.615936,349.531006 177.611816,349.711365 174.687149,350.291962 
	C152.995483,354.598450 137.422897,374.354584 137.880417,396.875885 
	C138.327011,418.858948 154.943619,438.275696 176.292725,441.761200 
	C203.123962,446.141724 228.359116,427.249939 230.945892,400.846283 
	C233.684814,372.889893 213.073563,349.952179 183.583267,349.165344 
z"/>
<path fill="#FDFCFC" opacity="1.000000" stroke="none" 
	d="
M86.981796,526.120483 
	C80.510834,526.120544 74.535782,526.120544 68.149605,526.120544 
	C68.149605,486.355957 68.149605,446.964020 68.149605,407.129517 
	C78.110275,407.129517 88.137108,407.129517 98.498276,407.129517 
	C98.498276,446.652893 98.498276,486.053680 98.498276,526.120483 
	C94.696030,526.120483 91.086868,526.120483 86.981796,526.120483 
z"/>
<path fill="#FDFBFB" opacity="1.000000" stroke="none" 
	d="
M271.153839,460.408264 
	C275.394104,449.661194 283.896240,443.749268 293.734772,444.407654 
	C303.175598,445.039429 311.600342,452.068817 313.710419,461.273224 
	C315.821442,470.481995 312.973297,478.147522 305.586914,483.826691 
	C298.306671,489.424255 290.053802,489.913330 282.075378,485.775848 
	C273.801910,481.485443 270.144012,474.048218 270.475250,464.731018 
	C270.522186,463.410858 270.845703,462.100494 271.153839,460.408264 
z"/>
<path fill="#FAF6F6" opacity="1.000000" stroke="none" 
	d="
M502.514832,617.998291 
	C501.240601,618.376404 499.503021,618.963928 497.765289,618.964478 
	C360.668976,619.006897 223.572678,619.004761 86.476379,618.984802 
	C84.836113,618.984558 83.195869,618.708191 81.267921,618.252197 
	C92.294815,618.083496 103.609375,618.342163 114.923996,618.344727 
	C239.808289,618.373718 364.692596,618.367188 489.576904,618.344971 
	C493.735107,618.344238 497.893280,618.076782 502.514832,617.998291 
z"/>
<path fill="#FAF6F6" opacity="1.000000" stroke="none" 
	d="
M83.550446,314.771545 
	C84.696632,314.480530 86.301170,314.024353 87.905815,314.023956 
	C224.376144,313.991241 360.846497,313.993011 497.316833,314.005432 
	C498.638153,314.005554 499.959503,314.179810 501.599701,314.521484 
	C495.428009,314.633728 488.937500,314.379456 482.446899,314.378265 
	C353.293945,314.354950 224.140976,314.357086 94.988007,314.380096 
	C91.328262,314.380768 87.668564,314.666412 83.550446,314.771545 
z"/>
<path fill="#FAF6F6" opacity="1.000000" stroke="none" 
	d="
M46.141441,578.552246 
	C45.700794,577.463745 45.043720,575.912354 45.042637,574.360413 
	C44.992119,502.061218 44.996315,429.761932 45.017582,357.462677 
	C45.017967,356.156677 45.300888,354.850708 45.764198,353.259125 
	C46.097687,406.215118 46.112862,459.456696 46.143185,512.698303 
	C46.155602,534.495239 46.200768,556.292114 46.141441,578.552246 
z"/>
<path fill="#FAF6F6" opacity="1.000000" stroke="none" 
	d="
M538.021362,350.428131 
	C538.377258,352.104004 538.679321,354.186035 538.960144,356.692017 
	C538.615112,355.022095 538.291321,352.928192 538.021362,350.428131 
z"/>
<path fill="#FAF6F6" opacity="1.000000" stroke="none" 
	d="
M47.086391,584.627197 
	C46.719147,583.520874 46.378563,582.023315 46.067696,580.106750 
	C46.435963,581.203796 46.774509,582.719849 47.086391,584.627197 
z"/>
<path fill="#FAF6F6" opacity="1.000000" stroke="none" 
	d="
M78.370422,315.844238 
	C78.837868,315.540558 79.621048,315.279266 80.729950,315.036499 
	C80.265839,315.332214 79.475998,315.609406 78.370422,315.844238 
z"/>
<path fill="#FAF6F6" opacity="1.000000" stroke="none" 
	d="
M537.130249,346.371826 
	C537.440674,346.851898 537.711914,347.656250 537.967163,348.799133 
	C537.664429,348.323822 537.377808,347.509979 537.130249,346.371826 
z"/>
<path fill="#FAF6F6" opacity="1.000000" stroke="none" 
	d="
M46.330242,351.263367 
	C46.196716,350.558960 46.292625,349.553070 46.660591,348.285492 
	C46.808327,349.003143 46.684002,349.982544 46.330242,351.263367 
z"/>
<path fill="#FAF6F6" opacity="1.000000" stroke="none" 
	d="
M508.605896,616.346558 
	C508.424530,616.594421 507.994202,616.792969 507.317078,616.998108 
	C507.499115,616.768860 507.928009,616.533020 508.605896,616.346558 
z"/>
<path fill="#FAF6F6" opacity="1.000000" stroke="none" 
	d="
M77.016815,616.700012 
	C76.639275,616.809937 76.044067,616.707336 75.247299,616.374084 
	C75.630211,616.258057 76.214684,616.372742 77.016815,616.700012 
z"/>
<path fill="#FAF6F6" opacity="1.000000" stroke="none" 
	d="
M521.423279,323.177399 
	C521.784546,323.182495 522.268494,323.432312 522.847473,323.947388 
	C522.476990,323.949158 522.011475,323.685638 521.423279,323.177399 
z"/>
<path fill="#FAF6F6" opacity="1.000000" stroke="none" 
	d="
M80.191078,617.662964 
	C79.797295,617.793274 79.152939,617.714417 78.281570,617.401245 
	C78.683205,617.262512 79.311859,617.358154 80.191078,617.662964 
z"/>
<path fill="#FAF6F6" opacity="1.000000" stroke="none" 
	d="
M511.653198,615.224121 
	C511.470154,615.493774 511.016510,615.736084 510.294067,615.985901 
	C510.477692,615.727905 510.930145,615.462341 511.653198,615.224121 
z"/>
<path fill="#FAF6F6" opacity="1.000000" stroke="none" 
	d="
M505.591248,617.314575 
	C505.369476,617.565979 504.872772,617.764038 504.094910,617.945129 
	C504.314575,617.705811 504.815430,617.483521 505.591248,617.314575 
z"/>
<path fill="#FAF6F6" opacity="1.000000" stroke="none" 
	d="
M48.245045,343.883972 
	C48.142612,343.529572 48.251938,342.986969 48.569710,342.257446 
	C48.671040,342.612274 48.563923,343.154022 48.245045,343.883972 
z"/>
<path fill="#FAF6F6" opacity="1.000000" stroke="none" 
	d="
M48.892941,590.661438 
	C48.601128,590.445007 48.328159,589.926208 48.067734,589.097412 
	C48.357445,589.311218 48.634613,589.835205 48.892941,590.661438 
z"/>
<path fill="#FAF6F6" opacity="1.000000" stroke="none" 
	d="
M75.349167,316.747711 
	C75.554268,316.492859 76.033028,316.259766 76.790565,316.027283 
	C76.587166,316.275085 76.104988,316.522247 75.349167,316.747711 
z"/>
<path fill="#FAF6F6" opacity="1.000000" stroke="none" 
	d="
M504.103394,315.221680 
	C504.402863,315.115173 504.912170,315.167389 505.622314,315.377686 
	C505.319824,315.483948 504.816498,315.432159 504.103394,315.221680 
z"/>
<path fill="#FAF6F6" opacity="1.000000" stroke="none" 
	d="
M47.301319,347.077728 
	C47.169434,346.718414 47.232914,346.130463 47.497437,345.324646 
	C47.631218,345.687531 47.563950,346.268341 47.301319,347.077728 
z"/>
<path fill="#FAF6F6" opacity="1.000000" stroke="none" 
	d="
M536.210938,343.351868 
	C536.479187,343.563141 536.721741,344.057068 536.958252,344.840393 
	C536.696472,344.631348 536.440857,344.132935 536.210938,343.351868 
z"/>
<path fill="#FAF6F6" opacity="1.000000" stroke="none" 
	d="
M47.842628,587.615234 
	C47.563622,587.352844 47.320934,586.764343 47.101852,585.835571 
	C47.376621,586.093201 47.627789,586.691162 47.842628,587.615234 
z"/>
<path fill="#FAF6F6" opacity="1.000000" stroke="none" 
	d="
M508.017395,316.191528 
	C508.114197,316.043701 508.299530,316.072388 508.594666,316.216797 
	C508.711029,316.290192 508.419220,316.432648 508.419220,316.432648 
	C508.419220,316.432648 508.112488,316.325623 508.017395,316.191528 
z"/>
<path fill="#FAF6F6" opacity="1.000000" stroke="none" 
	d="
M518.913208,321.324982 
	C519.096008,321.233307 519.408203,321.374329 519.860107,321.737000 
	C519.680725,321.825012 519.361633,321.691345 518.913208,321.324982 
z"/>
<path fill="#0B68B0" opacity="1.000000" stroke="none" 
	d="
M405.073242,396.610901 
	C408.196930,401.033661 407.367950,404.022797 403.019226,404.192169 
	C395.102905,404.500549 387.165955,404.279755 378.993988,404.279755 
	C378.993988,401.461304 378.993988,399.199249 378.993988,396.415924 
	C387.606537,396.415924 396.145203,396.415924 405.073242,396.610901 
z"/>
<path fill="#1167AD" opacity="1.000000" stroke="none" 
	d="
M860.880981,518.459106 
	C855.627380,518.458862 850.854065,518.458862 846.200439,518.458862 
	C844.269287,511.776062 844.680542,511.178772 850.892151,511.170959 
	C856.515930,511.163910 862.157227,510.928101 867.752563,511.327881 
	C869.403015,511.445801 870.923584,513.381409 872.503662,514.484009 
	C870.939758,515.801147 869.564209,517.661743 867.760437,518.287109 
	C865.838440,518.953430 863.511414,518.451355 860.880981,518.459106 
z"/>
<path fill="#1067AD" opacity="1.000000" stroke="none" 
	d="
M456.075684,516.629028 
	C456.034241,514.742737 456.034241,513.289673 456.034241,511.292358 
	C464.384583,511.292358 472.274658,511.188843 480.154877,511.420288 
	C481.166748,511.449982 482.764832,513.120544 482.934875,514.211304 
	C483.109253,515.329895 481.858429,517.752258 481.240234,517.749329 
	C472.864929,517.709229 464.491241,517.345825 456.075684,516.629028 
z"/>
<path fill="#1067AD" opacity="1.000000" stroke="none" 
	d="
M545.996155,528.877075 
	C547.642883,522.944153 549.183960,517.398621 550.724976,511.853027 
	C551.218262,511.822906 551.711609,511.792786 552.204895,511.762695 
	C554.402100,519.704224 556.599304,527.645752 558.934998,536.088013 
	C553.827332,536.088013 549.299805,536.088013 544.098877,536.088013 
	C544.748596,533.613464 545.319519,531.438965 545.996155,528.877075 
z"/>
<path fill="#FE3131" opacity="1.000000" stroke="none" 
	d="
M199.251633,581.355042 
	C174.048080,589.199158 148.076797,576.065857 140.321136,551.863037 
	C132.290131,526.800964 145.505676,500.634460 170.296524,492.512482 
	C194.153427,484.696411 220.353729,497.917175 228.674423,521.970154 
	C237.122482,546.391357 224.462173,572.225952 199.251633,581.355042 
M208.803223,530.962524 
	C204.297333,516.583069 190.753403,508.807220 177.438126,512.955200 
	C163.765732,517.214417 156.427597,531.551941 160.942734,545.184570 
	C165.046005,557.573608 177.477173,564.382690 190.299088,561.264282 
	C204.018433,557.927551 211.353455,546.344421 208.803223,530.962524 
z"/>
<path fill="#FE3131" opacity="1.000000" stroke="none" 
	d="
M184.042603,349.162689 
	C213.073563,349.952179 233.684814,372.889893 230.945892,400.846283 
	C228.359116,427.249939 203.123962,446.141724 176.292725,441.761200 
	C154.943619,438.275696 138.327011,418.858948 137.880417,396.875885 
	C137.422897,374.354584 152.995483,354.598450 174.687149,350.291962 
	C177.611816,349.711365 180.615936,349.531006 184.042603,349.162689 
M169.973557,375.384888 
	C160.794403,382.838898 157.442047,392.381470 160.687103,402.827759 
	C163.999634,413.491180 171.503815,419.551208 182.515213,420.510590 
	C192.887466,421.414337 200.963028,416.886505 206.333160,407.992004 
	C211.985062,398.630890 210.178375,386.091278 202.294998,378.024231 
	C194.204285,369.745056 181.686752,368.530640 169.973557,375.384888 
z"/>
<path fill="#FDFBFB" opacity="1.000000" stroke="none" 
	d="
M208.894104,531.359436 
	C211.353455,546.344421 204.018433,557.927551 190.299088,561.264282 
	C177.477173,564.382690 165.046005,557.573608 160.942734,545.184570 
	C156.427597,531.551941 163.765732,517.214417 177.438126,512.955200 
	C190.753403,508.807220 204.297333,516.583069 208.894104,531.359436 
z"/>
<path fill="#FDFBFB" opacity="1.000000" stroke="none" 
	d="
M170.270660,375.165527 
	C181.686752,368.530640 194.204285,369.745056 202.294998,378.024231 
	C210.178375,386.091278 211.985062,398.630890 206.333160,407.992004 
	C200.963028,416.886505 192.887466,421.414337 182.515213,420.510590 
	C171.503815,419.551208 163.999634,413.491180 160.687103,402.827759 
	C157.442047,392.381470 160.794403,382.838898 170.270660,375.165527 
z"/>
</svg>