<svg version="1.1" id="Layer_1" xmlns="http://www.w3.org/2000/svg" xmlns:xlink="http://www.w3.org/1999/xlink" x="0px" y="0px"
	 width="100%" viewBox="0 0 927 927" enable-background="new 0 0 927 927" xml:space="preserve">
<path fill="#006BB6" opacity="1.000000" stroke="none" 
	d="
M430.000000,928.000000 
	C286.666656,928.000000 143.833328,928.000000 1.000000,928.000000 
	C1.000000,619.000000 1.000000,310.000000 1.000000,1.000000 
	C310.000000,1.000000 619.000000,1.000000 928.000000,1.000000 
	C928.000000,310.000000 928.000000,619.000000 928.000000,928.000000 
	C762.166687,928.000000 596.333313,928.000000 430.000000,928.000000 
M315.821198,424.098663 
	C315.304657,422.513123 314.343536,420.929169 314.337921,419.341827 
	C314.244904,393.013855 314.266174,366.685455 314.287354,340.357147 
	C314.288513,338.916077 314.512604,337.475159 314.679474,335.476685 
	C316.771912,335.476685 318.559875,335.476654 320.347809,335.476654 
	C333.511963,335.476593 346.676117,335.476501 359.840271,335.476501 
	C407.997742,335.476532 456.155212,335.464600 504.312683,335.484558 
	C517.469604,335.489990 525.522095,342.220612 528.003479,355.118500 
	C528.120972,355.729248 528.460388,356.297272 528.331238,355.975616 
	C533.276978,357.796936 537.393494,359.553619 541.662476,360.778839 
	C543.663330,361.353058 546.257568,361.527252 548.011292,360.688110 
	C549.115234,360.159943 549.699402,357.386017 549.598511,355.673676 
	C548.154968,331.174408 529.434021,313.983276 504.189148,313.978790 
	C370.548004,313.955048 236.906845,313.958954 103.265694,313.974518 
	C75.651085,313.977722 57.231979,332.404541 57.218224,360.086853 
	C57.183277,430.406738 57.577271,500.729553 57.025661,571.045105 
	C56.797333,600.150757 79.127548,618.359253 104.438049,618.227905 
	C214.080826,617.659241 323.728241,617.984436 433.373962,617.984192 
	C457.369385,617.984131 481.364807,617.966125 505.360229,617.987854 
	C518.610962,617.999817 529.761841,613.080811 538.587891,603.329346 
	C541.678833,599.914307 543.864868,595.680176 547.038513,590.967224 
	C541.962952,590.967224 538.472046,590.987244 534.981384,590.963074 
	C527.727661,590.912842 520.544922,590.286743 513.881226,594.746826 
	C511.391785,596.412964 507.467987,596.366455 504.197174,596.371094 
	C442.875671,596.458069 381.554016,596.435242 320.232391,596.435364 
	C318.450104,596.435364 316.667816,596.435303 314.270996,596.435303 
	C314.270996,593.859558 314.270996,591.913025 314.270996,589.966492 
	C314.271210,566.137695 314.485809,542.305725 314.134186,518.482117 
	C314.035400,511.786926 314.358856,506.924164 322.315979,504.988403 
	C329.284119,503.293274 332.629822,498.467407 331.751434,490.435181 
	C330.872437,482.397858 330.781891,474.062286 335.490417,466.671448 
	C335.950012,465.950073 335.748352,464.738647 335.686707,463.765259 
	C335.298920,457.639648 333.848267,451.376312 334.672729,445.424988 
	C336.049377,435.487579 330.757965,430.721497 323.104248,427.014130 
	C321.013245,426.001282 318.791656,425.257996 315.821198,424.098663 
M483.499908,651.815918 
	C501.164276,651.815613 518.829224,651.896790 536.492798,651.779419 
	C544.886108,651.723633 553.110229,650.525208 560.514526,646.142456 
	C582.104126,633.363220 585.279724,615.141235 582.849670,591.940796 
	C575.798828,590.567932 568.931763,589.230896 561.815674,587.845337 
	C561.815674,593.353455 561.827820,599.171631 561.813232,604.989807 
	C561.772766,621.175720 552.924133,630.114807 536.789917,630.116333 
	C381.296967,630.130981 225.804031,630.130005 70.311096,630.117981 
	C53.944244,630.116699 45.181187,621.427795 45.177830,605.170044 
	C45.158543,511.840973 45.160545,418.511902 45.175072,325.182831 
	C45.177292,310.918701 54.328121,301.823303 68.660278,301.822388 
	C225.153183,301.812439 381.646088,301.813202 538.138977,301.821564 
	C552.511841,301.822327 561.594299,310.729370 561.789185,325.102539 
	C561.911133,334.100525 561.802551,343.101440 561.830566,352.100983 
	C561.835388,353.657959 562.005981,355.214417 562.072083,356.309082 
	C569.504150,356.309082 576.247070,356.309082 583.390076,356.309082 
	C583.390076,346.039185 583.459595,336.232056 583.376953,326.426208 
	C583.141113,298.459259 564.713013,280.139496 536.737000,280.136017 
	C381.244049,280.116638 225.750946,280.238800 70.258278,280.027924 
	C40.604603,279.987701 23.148449,302.708954 23.450468,326.775970 
	C24.169802,384.097687 23.681738,441.434540 23.682180,498.765259 
	C23.682457,534.596985 23.722685,570.428711 23.657503,606.260315 
	C23.641665,614.967285 25.336679,623.163208 30.014435,630.574219 
	C39.522766,645.638428 53.640308,651.828735 71.018547,651.826294 
	C208.178986,651.807068 345.339447,651.815796 483.499908,651.815918 
M362.408142,384.547119 
	C362.408142,408.274963 362.408142,432.002808 362.408142,455.661621 
	C371.902222,455.661621 380.643829,455.661621 389.921265,455.661621 
	C389.921265,445.622467 389.921265,435.894684 389.921265,425.712708 
	C396.415558,425.712708 402.371948,425.786682 408.325562,425.689453 
	C413.140991,425.610809 418.028687,425.799286 422.752472,425.044312 
	C437.172211,422.739746 446.740601,410.832520 445.679443,397.063141 
	C444.575287,382.735657 435.136841,374.225128 419.469574,374.031921 
	C401.332916,373.808228 383.191437,373.970306 365.052063,373.985626 
	C364.285980,373.986267 363.520081,374.195984 362.408264,374.359009 
	C362.408264,377.625397 362.408264,380.596649 362.408142,384.547119 
M905.612976,521.917480 
	C910.131653,504.920715 900.665283,492.239471 883.043518,492.010437 
	C868.714294,491.824158 854.380859,491.968781 840.049255,491.966766 
	C837.623047,491.966431 835.196838,491.966736 832.852905,491.966736 
	C832.852905,516.034058 832.852905,539.399963 832.852905,562.650391 
	C840.879700,562.650391 848.459900,562.650391 856.624634,562.650391 
	C856.624634,553.929504 856.624634,545.530457 856.624634,537.220276 
	C866.940918,536.105286 866.942261,536.104553 871.411560,544.391174 
	C874.258728,549.670227 877.027283,554.994080 880.003906,560.199036 
	C880.654785,561.337280 882.017456,562.812622 883.091492,562.845276 
	C890.646973,563.074524 898.212646,562.966858 906.649353,562.966858 
	C901.285339,553.489563 896.408997,544.873901 891.296814,535.841553 
	C897.993347,533.170044 902.769653,529.021667 905.612976,521.917480 
M499.609985,492.644440 
	C481.144318,492.480835 462.678711,492.314911 444.212830,492.178131 
	C443.960114,492.176270 443.704651,492.542511 443.412262,492.766174 
	C443.412262,515.993164 443.412262,539.239746 443.412262,562.596680 
	C451.426178,562.596680 459.133301,562.596680 467.258423,562.596680 
	C467.258423,553.938904 467.258423,545.662109 467.258423,537.482483 
	C476.940247,535.584106 477.561676,535.858887 481.755798,543.630188 
	C484.682800,549.053650 487.550110,554.510681 490.579193,559.876465 
	C491.249359,561.063660 492.461945,562.776306 493.470581,562.808411 
	C501.176361,563.053955 508.893494,562.943176 517.446594,562.943176 
	C512.038025,553.459229 507.133698,544.859497 502.083405,536.003723 
	C513.340027,530.923279 518.901978,522.675720 517.408264,510.800781 
	C516.171631,500.970367 510.024353,495.113770 499.609985,492.644440 
M799.500000,562.980103 
	C806.771057,562.980103 814.042053,562.980103 821.415771,562.980103 
	C821.415771,556.351929 821.415771,550.304749 821.415771,543.785156 
	C806.965637,543.785156 792.888062,543.785156 778.776611,543.785156 
	C778.776611,541.354126 778.776611,539.406067 778.776611,536.968384 
	C793.065186,536.968384 807.140320,536.968384 821.465820,536.968384 
	C821.465820,530.429138 821.465820,524.383240 821.465820,517.869873 
	C807.057678,517.869873 792.969971,517.869873 778.934448,517.869873 
	C778.934448,515.339905 778.934448,513.295532 778.934448,510.726166 
	C793.361816,510.726166 807.413879,510.726166 821.505737,510.726166 
	C821.505737,504.268829 821.505737,498.349915 821.505737,492.203644 
	C799.153748,492.203644 777.090027,492.203644 754.822815,492.203644 
	C754.822815,515.830933 754.822815,539.239380 754.822815,562.980103 
	C769.564514,562.980103 784.032288,562.980103 799.500000,562.980103 
M552.889282,554.965027 
	C559.053223,554.964783 565.224670,555.145569 571.377869,554.888428 
	C574.489197,554.758362 575.824280,555.869873 576.542969,558.791199 
	C576.917114,560.311646 578.272156,562.739868 579.261963,562.778870 
	C587.468201,563.101624 595.692627,562.961670 604.037964,562.961670 
	C603.915161,561.748840 603.954285,561.232544 603.803833,560.779114 
	C596.513000,538.809998 589.150452,516.864380 581.969727,494.859406 
	C581.059143,492.068817 579.391663,491.929169 577.085388,491.944000 
	C567.590027,492.005035 558.089233,492.142700 548.600830,491.878204 
	C545.137817,491.781708 543.740967,492.914581 542.683594,496.172455 
	C535.949097,516.921387 528.966980,537.589966 522.083008,558.290527 
	C521.620056,559.682678 521.294617,561.120483 520.782898,562.982117 
	C528.343750,562.982117 535.496765,562.795654 542.632996,563.061218 
	C546.175232,563.193054 548.153381,562.325073 548.885010,558.591675 
	C549.151001,557.234253 550.906677,556.168640 552.889282,554.965027 
M453.763855,429.650940 
	C456.166229,443.295929 463.718597,452.330109 477.417511,455.581421 
	C486.305664,457.690887 495.242493,457.552734 504.114075,455.204559 
	C516.218262,452.000763 524.716431,444.305359 526.226624,432.086212 
	C528.130188,416.685455 527.845581,401.014282 528.509583,385.352020 
	C519.575745,385.352020 511.864471,385.352020 503.889435,385.352020 
	C503.889435,387.721252 503.894531,389.706299 503.888550,391.691284 
	C503.856842,402.185150 504.095001,412.688965 503.712860,423.170105 
	C503.324585,433.820404 495.156586,439.402313 485.566956,435.962860 
	C479.079498,433.636047 477.151917,428.213623 477.011078,422.058075 
	C476.790100,412.401428 476.917725,402.736786 476.900116,393.075531 
	C476.895386,390.479218 476.899384,387.882904 476.899384,385.234558 
	C468.582489,385.234558 460.989624,385.234558 453.642181,385.234558 
	C453.642181,399.930725 453.642181,414.355988 453.763855,429.650940 
M679.833923,562.985413 
	C686.580078,562.985413 693.326172,562.985413 699.682678,562.985413 
	C702.534363,554.692078 696.648926,545.355591 705.061340,538.154297 
	C710.228882,545.766907 715.010315,552.925293 719.946960,559.974976 
	C720.810425,561.208008 722.299316,562.797852 723.545044,562.838989 
	C731.439758,563.099854 739.347351,562.971558 748.253723,562.971558 
	C738.425903,548.593994 729.184509,535.074402 719.860046,521.433228 
	C728.673035,511.674286 737.184021,502.249756 746.471619,491.965210 
	C739.226135,491.965210 733.257080,492.283875 727.340332,491.865082 
	C722.550232,491.526031 719.278503,493.028412 716.295349,496.800598 
	C711.735413,502.566681 706.616516,507.890656 701.734863,513.402344 
	C701.308777,513.220032 700.882629,513.037781 700.456543,512.855469 
	C700.456543,505.994629 700.456543,499.133759 700.456543,492.190247 
	C692.168945,492.190247 684.563782,492.190247 677.060059,492.190247 
	C676.814819,492.708099 676.552856,493.003448 676.552124,493.299408 
	C676.496155,515.606995 676.431091,537.914795 676.528992,560.221802 
	C676.533020,561.144958 678.077820,562.061218 679.833923,562.985413 
M653.677551,419.665619 
	C652.569885,418.012726 651.462158,416.359833 650.138611,414.384949 
	C658.810669,404.786987 667.403870,395.276245 676.717224,384.968536 
	C668.818054,384.968536 662.319153,385.164825 655.840271,384.889893 
	C652.337891,384.741272 649.966003,385.826935 647.726135,388.517242 
	C642.576416,394.702637 637.110779,400.625031 631.773315,406.654205 
	C631.416443,406.489410 631.059509,406.324615 630.702576,406.159821 
	C630.702576,399.257385 630.702576,392.354950 630.702576,385.266052 
	C622.461975,385.266052 614.748840,385.266052 607.052185,385.266052 
	C607.052185,408.959869 607.052185,432.354309 607.052185,455.706970 
	C615.021362,455.706970 622.621521,455.706970 629.878357,455.706970 
	C633.192688,447.903046 626.515625,438.212891 635.399658,431.247314 
	C640.530945,438.819275 645.255798,445.858978 650.073425,452.834717 
	C650.880615,454.003632 652.063721,455.748016 653.116638,455.779663 
	C661.285461,456.024933 669.464966,455.915039 678.471130,455.915039 
	C669.883301,443.367584 661.981567,431.822693 653.677551,419.665619 
M409.234467,562.957458 
	C409.884155,561.350952 411.082581,559.749756 411.098175,558.137085 
	C411.242920,543.152161 411.184082,528.165283 411.184296,513.178955 
	C411.184357,509.892120 411.184326,506.605316 411.184326,502.562805 
	C419.590179,502.562805 427.446167,502.562805 435.356171,502.562805 
	C435.356171,495.027283 435.356171,488.258667 435.356171,481.231018 
	C410.057739,481.231018 385.017639,481.231018 359.844086,481.231018 
	C359.844086,488.400238 359.844086,495.310486 359.844086,502.801636 
	C367.881470,502.801636 375.607941,502.801636 383.866852,502.801636 
	C383.866852,523.096924 383.866852,542.815247 383.866852,562.979065 
	C392.366272,562.979065 400.321014,562.979065 409.234467,562.957458 
M606.476440,526.624023 
	C606.923096,544.306519 616.904663,557.903870 632.836487,562.533081 
	C645.992126,566.355652 662.327148,561.803345 668.622620,552.384399 
	C664.515503,548.333557 660.217773,544.388184 656.284607,540.107849 
	C653.827515,537.433960 651.973816,536.482971 648.422607,538.743408 
	C644.013428,541.549927 637.812622,540.288818 634.129517,536.635254 
	C630.224304,532.761475 629.132019,528.078186 630.933655,522.870422 
	C632.658569,517.884033 637.434998,514.400330 642.876831,514.772095 
	C646.060791,514.989624 649.166321,516.355835 652.429688,517.238525 
	C657.371887,512.095581 662.631836,506.622101 668.088745,500.943604 
	C657.314697,491.397827 644.597107,488.058868 630.563965,493.271729 
	C615.786316,498.761261 607.713928,509.868774 606.476440,526.624023 
M570.791260,456.900726 
	C581.796692,457.441467 591.267944,454.037018 598.819946,446.627533 
	C593.246399,440.927490 587.952759,435.513702 582.614807,430.054596 
	C573.880066,434.445160 568.047363,433.979004 563.502869,428.419495 
	C559.822388,423.917084 559.685669,417.302032 563.177185,412.663788 
	C567.489258,406.935547 573.518066,406.301758 582.420532,410.389648 
	C587.770996,404.820160 593.001343,399.375732 598.370239,393.787048 
	C588.515808,384.971008 576.661194,381.580017 563.291260,385.518494 
	C549.754944,389.506073 541.115051,398.701019 537.859375,412.450165 
	C533.012024,432.920807 547.059998,454.290863 570.791260,456.900726 
z"/>
<path fill="#FB2D2E" opacity="1.000000" stroke="none" 
	d="
M316.225586,424.244812 
	C318.791656,425.257996 321.013245,426.001282 323.104248,427.014130 
	C330.757965,430.721497 336.049377,435.487579 334.672729,445.424988 
	C333.848267,451.376312 335.298920,457.639648 335.686707,463.765259 
	C335.748352,464.738647 335.950012,465.950073 335.490417,466.671448 
	C330.781891,474.062286 330.872437,482.397858 331.751434,490.435181 
	C332.629822,498.467407 329.284119,503.293274 322.315979,504.988403 
	C314.358856,506.924164 314.035400,511.786926 314.134186,518.482117 
	C314.485809,542.305725 314.271210,566.137695 314.270996,589.966492 
	C314.270996,591.913025 314.270996,593.859558 314.270996,596.435303 
	C316.667816,596.435303 318.450104,596.435364 320.232391,596.435364 
	C381.554016,596.435242 442.875671,596.458069 504.197174,596.371094 
	C507.467987,596.366455 511.391785,596.412964 513.881226,594.746826 
	C520.544922,590.286743 527.727661,590.912842 534.981384,590.963074 
	C538.472046,590.987244 541.962952,590.967224 547.038513,590.967224 
	C543.864868,595.680176 541.678833,599.914307 538.587891,603.329346 
	C529.761841,613.080811 518.610962,617.999817 505.360229,617.987854 
	C481.364807,617.966125 457.369385,617.984131 433.373962,617.984192 
	C323.728241,617.984436 214.080826,617.659241 104.438049,618.227905 
	C79.127548,618.359253 56.797333,600.150757 57.025661,571.045105 
	C57.577271,500.729553 57.183277,430.406738 57.218224,360.086853 
	C57.231979,332.404541 75.651085,313.977722 103.265694,313.974518 
	C236.906845,313.958954 370.548004,313.955048 504.189148,313.978790 
	C529.434021,313.983276 548.154968,331.174408 549.598511,355.673676 
	C549.699402,357.386017 549.115234,360.159943 548.011292,360.688110 
	C546.257568,361.527252 543.663330,361.353058 541.662476,360.778839 
	C537.393494,359.553619 533.276978,357.796936 528.331238,355.975616 
	C528.460388,356.297272 528.120972,355.729248 528.003479,355.118500 
	C525.522095,342.220612 517.469604,335.489990 504.312683,335.484558 
	C456.155212,335.464600 407.997742,335.476532 359.840271,335.476501 
	C346.676117,335.476501 333.511963,335.476593 320.347809,335.476654 
	C318.559875,335.476654 316.771912,335.476685 314.679474,335.476685 
	C314.512604,337.475159 314.288513,338.916077 314.287354,340.357147 
	C314.266174,366.685455 314.244904,393.013855 314.337921,419.341827 
	C314.343536,420.929169 315.304657,422.513123 316.225586,424.244812 
M142.500366,335.467804 
	C128.834015,335.468262 115.167183,335.397491 101.501472,335.491486 
	C90.319359,335.568390 80.644058,342.323883 79.461830,352.714630 
	C78.290611,363.008606 79.205666,373.539978 79.205666,384.445953 
	C92.075378,384.445953 104.706505,384.417725 117.337433,384.454681 
	C127.930191,384.485657 131.512115,388.045624 131.527878,398.556183 
	C131.555130,416.722473 131.536011,434.888824 131.536011,453.055145 
	C131.536041,480.054626 131.559052,507.054138 131.523209,534.053589 
	C131.510483,543.642029 127.782257,547.342590 118.175247,547.453308 
	C113.175995,547.510986 108.175552,547.467163 103.175652,547.467651 
	C95.227242,547.468445 87.278831,547.467896 78.785439,547.467896 
	C78.785439,556.189087 78.760025,564.310974 78.790932,572.432617 
	C78.848221,587.483948 87.736496,596.433960 102.690048,596.437622 
	C164.188889,596.452637 225.687714,596.446655 287.186554,596.429932 
	C288.931091,596.429443 290.675598,596.220947 292.566071,596.100098 
	C292.566071,566.566956 292.566071,537.605469 292.566071,508.618378 
	C273.343750,502.048981 261.179413,489.142822 260.144653,468.635406 
	C258.980804,445.569092 271.415863,430.931000 292.338348,423.501434 
	C292.338348,394.044312 292.338348,364.976288 292.338348,335.467743 
	C242.446564,335.467743 192.973465,335.467743 142.500366,335.467804 
M78.779594,412.608337 
	C78.779594,450.171631 78.779594,487.734924 78.779594,525.390259 
	C89.480377,525.390259 99.510986,525.390259 109.483742,525.390259 
	C109.483742,485.474121 109.483742,445.965118 109.483742,406.455383 
	C99.117989,406.455383 89.199936,406.455383 78.779655,406.455383 
	C78.779655,408.383453 78.779655,410.012268 78.779594,412.608337 
M319.012482,450.475006 
	C310.394562,442.810364 300.272522,441.828888 291.136597,447.772064 
	C283.144409,452.971252 279.582275,462.977509 282.406738,472.295135 
	C285.008698,480.878754 292.364899,486.996124 301.208649,487.930603 
	C309.762512,488.834473 318.601807,484.127502 322.833069,476.415466 
	C327.365143,468.155212 326.193787,459.150604 319.012482,450.475006 
z"/>
<path fill="#FA2D2F" opacity="1.000000" stroke="none" 
	d="
M482.999878,651.815918 
	C345.339447,651.815796 208.178986,651.807068 71.018547,651.826294 
	C53.640308,651.828735 39.522766,645.638428 30.014435,630.574219 
	C25.336679,623.163208 23.641665,614.967285 23.657503,606.260315 
	C23.722685,570.428711 23.682457,534.596985 23.682180,498.765259 
	C23.681738,441.434540 24.169802,384.097687 23.450468,326.775970 
	C23.148449,302.708954 40.604603,279.987701 70.258278,280.027924 
	C225.750946,280.238800 381.244049,280.116638 536.737000,280.136017 
	C564.713013,280.139496 583.141113,298.459259 583.376953,326.426208 
	C583.459595,336.232056 583.390076,346.039185 583.390076,356.309082 
	C576.247070,356.309082 569.504150,356.309082 562.072083,356.309082 
	C562.005981,355.214417 561.835388,353.657959 561.830566,352.100983 
	C561.802551,343.101440 561.911133,334.100525 561.789185,325.102539 
	C561.594299,310.729370 552.511841,301.822327 538.138977,301.821564 
	C381.646088,301.813202 225.153183,301.812439 68.660278,301.822388 
	C54.328121,301.823303 45.177292,310.918701 45.175072,325.182831 
	C45.160545,418.511902 45.158543,511.840973 45.177830,605.170044 
	C45.181187,621.427795 53.944244,630.116699 70.311096,630.117981 
	C225.804031,630.130005 381.296967,630.130981 536.789917,630.116333 
	C552.924133,630.114807 561.772766,621.175720 561.813232,604.989807 
	C561.827820,599.171631 561.815674,593.353455 561.815674,587.845337 
	C568.931763,589.230896 575.798828,590.567932 582.849670,591.940796 
	C585.279724,615.141235 582.104126,633.363220 560.514526,646.142456 
	C553.110229,650.525208 544.886108,651.723633 536.492798,651.779419 
	C518.829224,651.896790 501.164276,651.815613 482.999878,651.815918 
z"/>
<path fill="#FA2D2F" opacity="1.000000" stroke="none" 
	d="
M362.408203,384.057495 
	C362.408264,380.596649 362.408264,377.625397 362.408264,374.359009 
	C363.520081,374.195984 364.285980,373.986267 365.052063,373.985626 
	C383.191437,373.970306 401.332916,373.808228 419.469574,374.031921 
	C435.136841,374.225128 444.575287,382.735657 445.679443,397.063141 
	C446.740601,410.832520 437.172211,422.739746 422.752472,425.044312 
	C418.028687,425.799286 413.140991,425.610809 408.325562,425.689453 
	C402.371948,425.786682 396.415558,425.712708 389.921265,425.712708 
	C389.921265,435.894684 389.921265,445.622467 389.921265,455.661621 
	C380.643829,455.661621 371.902222,455.661621 362.408142,455.661621 
	C362.408142,432.002808 362.408142,408.274963 362.408203,384.057495 
M412.123016,403.971222 
	C415.184814,404.039398 418.217865,403.542175 418.092926,399.760620 
	C418.048492,398.416138 415.890625,396.066498 414.619385,396.012421 
	C406.527069,395.668152 398.412933,395.837250 390.072876,395.837250 
	C390.072876,398.697235 390.072876,401.090698 390.072876,403.972382 
	C397.288025,403.972382 404.242554,403.972382 412.123016,403.971222 
z"/>
<path fill="#FA2D2E" opacity="1.000000" stroke="none" 
	d="
M905.458740,522.277954 
	C902.769653,529.021667 897.993347,533.170044 891.296814,535.841553 
	C896.408997,544.873901 901.285339,553.489563 906.649353,562.966858 
	C898.212646,562.966858 890.646973,563.074524 883.091492,562.845276 
	C882.017456,562.812622 880.654785,561.337280 880.003906,560.199036 
	C877.027283,554.994080 874.258728,549.670227 871.411560,544.391174 
	C866.942261,536.104553 866.940918,536.105286 856.624634,537.220276 
	C856.624634,545.530457 856.624634,553.929504 856.624634,562.650391 
	C848.459900,562.650391 840.879700,562.650391 832.852905,562.650391 
	C832.852905,539.399963 832.852905,516.034058 832.852905,491.966736 
	C835.196838,491.966736 837.623047,491.966431 840.049255,491.966766 
	C854.380859,491.968781 868.714294,491.824158 883.043518,492.010437 
	C900.665283,492.239471 910.131653,504.920715 905.458740,522.277954 
M870.473389,510.868561 
	C865.898132,510.868561 861.322876,510.868561 856.819580,510.868561 
	C856.819580,513.680359 856.819580,515.729492 856.819580,517.980103 
	C864.377075,517.980103 871.534546,518.214050 878.655762,517.809387 
	C880.356262,517.712708 881.935730,515.485657 883.570862,514.238403 
	C881.860657,513.116394 880.281189,511.490662 878.406067,511.004150 
	C876.224548,510.438141 873.784119,510.869873 870.473389,510.868561 
z"/>
<path fill="#FB2D2E" opacity="1.000000" stroke="none" 
	d="
M500.022766,492.741089 
	C510.024353,495.113770 516.171631,500.970367 517.408264,510.800781 
	C518.901978,522.675720 513.340027,530.923279 502.083405,536.003723 
	C507.133698,544.859497 512.038025,553.459229 517.446594,562.943176 
	C508.893494,562.943176 501.176361,563.053955 493.470581,562.808411 
	C492.461945,562.776306 491.249359,561.063660 490.579193,559.876465 
	C487.550110,554.510681 484.682800,549.053650 481.755798,543.630188 
	C477.561676,535.858887 476.940247,535.584106 467.258423,537.482483 
	C467.258423,545.662109 467.258423,553.938904 467.258423,562.596680 
	C459.133301,562.596680 451.426178,562.596680 443.412262,562.596680 
	C443.412262,539.239746 443.412262,515.993164 443.412262,492.766174 
	C443.704651,492.542511 443.960114,492.176270 444.212830,492.178131 
	C462.678711,492.314911 481.144318,492.480835 500.022766,492.741089 
M469.824951,510.879242 
	C464.591888,511.852844 467.946442,515.239685 467.415985,517.971375 
	C475.207825,517.971375 482.514282,518.177979 489.791016,517.804932 
	C491.329285,517.726074 492.758850,515.526611 494.238495,514.304199 
	C492.730652,513.163452 491.276642,511.133453 489.705505,511.038361 
	C483.412109,510.657288 477.082428,510.876526 469.824951,510.879242 
z"/>
<path fill="#FD2D2D" opacity="1.000000" stroke="none" 
	d="
M799.000000,562.980103 
	C784.032288,562.980103 769.564514,562.980103 754.822815,562.980103 
	C754.822815,539.239380 754.822815,515.830933 754.822815,492.203644 
	C777.090027,492.203644 799.153748,492.203644 821.505737,492.203644 
	C821.505737,498.349915 821.505737,504.268829 821.505737,510.726166 
	C807.413879,510.726166 793.361816,510.726166 778.934448,510.726166 
	C778.934448,513.295532 778.934448,515.339905 778.934448,517.869873 
	C792.969971,517.869873 807.057678,517.869873 821.465820,517.869873 
	C821.465820,524.383240 821.465820,530.429138 821.465820,536.968384 
	C807.140320,536.968384 793.065186,536.968384 778.776611,536.968384 
	C778.776611,539.406067 778.776611,541.354126 778.776611,543.785156 
	C792.888062,543.785156 806.965637,543.785156 821.415771,543.785156 
	C821.415771,550.304749 821.415771,556.351929 821.415771,562.980103 
	C814.042053,562.980103 806.771057,562.980103 799.000000,562.980103 
z"/>
<path fill="#FC2D2E" opacity="1.000000" stroke="none" 
	d="
M552.435974,554.967468 
	C550.906677,556.168640 549.151001,557.234253 548.885010,558.591675 
	C548.153381,562.325073 546.175232,563.193054 542.632996,563.061218 
	C535.496765,562.795654 528.343750,562.982117 520.782898,562.982117 
	C521.294617,561.120483 521.620056,559.682678 522.083008,558.290527 
	C528.966980,537.589966 535.949097,516.921387 542.683594,496.172455 
	C543.740967,492.914581 545.137817,491.781708 548.600830,491.878204 
	C558.089233,492.142700 567.590027,492.005035 577.085388,491.944000 
	C579.391663,491.929169 581.059143,492.068817 581.969727,494.859406 
	C589.150452,516.864380 596.513000,538.809998 603.803833,560.779114 
	C603.954285,561.232544 603.915161,561.748840 604.037964,562.961670 
	C595.692627,562.961670 587.468201,563.101624 579.261963,562.778870 
	C578.272156,562.739868 576.917114,560.311646 576.542969,558.791199 
	C575.824280,555.869873 574.489197,554.758362 571.377869,554.888428 
	C565.224670,555.145569 559.053223,554.964783 552.435974,554.967468 
M556.477478,530.757019 
	C556.089966,532.333618 555.702515,533.910217 555.242310,535.782959 
	C560.245911,535.782959 564.849854,535.782959 570.037048,535.782959 
	C567.709839,527.364868 565.476135,519.285217 563.242432,511.205536 
	C562.781189,511.251587 562.319946,511.297638 561.858704,511.343689 
	C560.133606,517.555237 558.408569,523.766846 556.477478,530.757019 
z"/>
<path fill="#FA2D2E" opacity="1.000000" stroke="none" 
	d="
M453.703003,429.216095 
	C453.642181,414.355988 453.642181,399.930725 453.642181,385.234558 
	C460.989624,385.234558 468.582489,385.234558 476.899384,385.234558 
	C476.899384,387.882904 476.895386,390.479218 476.900116,393.075531 
	C476.917725,402.736786 476.790100,412.401428 477.011078,422.058075 
	C477.151917,428.213623 479.079498,433.636047 485.566956,435.962860 
	C495.156586,439.402313 503.324585,433.820404 503.712860,423.170105 
	C504.095001,412.688965 503.856842,402.185150 503.888550,391.691284 
	C503.894531,389.706299 503.889435,387.721252 503.889435,385.352020 
	C511.864471,385.352020 519.575745,385.352020 528.509583,385.352020 
	C527.845581,401.014282 528.130188,416.685455 526.226624,432.086212 
	C524.716431,444.305359 516.218262,452.000763 504.114075,455.204559 
	C495.242493,457.552734 486.305664,457.690887 477.417511,455.581421 
	C463.718597,452.330109 456.166229,443.295929 453.703003,429.216095 
z"/>
<path fill="#FA2D2F" opacity="1.000000" stroke="none" 
	d="
M679.369385,562.983032 
	C678.077820,562.061218 676.533020,561.144958 676.528992,560.221802 
	C676.431091,537.914795 676.496155,515.606995 676.552124,493.299408 
	C676.552856,493.003448 676.814819,492.708099 677.060059,492.190247 
	C684.563782,492.190247 692.168945,492.190247 700.456543,492.190247 
	C700.456543,499.133759 700.456543,505.994629 700.456543,512.855469 
	C700.882629,513.037781 701.308777,513.220032 701.734863,513.402344 
	C706.616516,507.890656 711.735413,502.566681 716.295349,496.800598 
	C719.278503,493.028412 722.550232,491.526031 727.340332,491.865082 
	C733.257080,492.283875 739.226135,491.965210 746.471619,491.965210 
	C737.184021,502.249756 728.673035,511.674286 719.860046,521.433228 
	C729.184509,535.074402 738.425903,548.593994 748.253723,562.971558 
	C739.347351,562.971558 731.439758,563.099854 723.545044,562.838989 
	C722.299316,562.797852 720.810425,561.208008 719.946960,559.974976 
	C715.010315,552.925293 710.228882,545.766907 705.061340,538.154297 
	C696.648926,545.355591 702.534363,554.692078 699.682678,562.985413 
	C693.326172,562.985413 686.580078,562.985413 679.369385,562.983032 
z"/>
<path fill="#FB2D2E" opacity="1.000000" stroke="none" 
	d="
M653.878723,419.971710 
	C661.981567,431.822693 669.883301,443.367584 678.471130,455.915039 
	C669.464966,455.915039 661.285461,456.024933 653.116638,455.779663 
	C652.063721,455.748016 650.880615,454.003632 650.073425,452.834717 
	C645.255798,445.858978 640.530945,438.819275 635.399658,431.247314 
	C626.515625,438.212891 633.192688,447.903046 629.878357,455.706970 
	C622.621521,455.706970 615.021362,455.706970 607.052185,455.706970 
	C607.052185,432.354309 607.052185,408.959869 607.052185,385.266052 
	C614.748840,385.266052 622.461975,385.266052 630.702576,385.266052 
	C630.702576,392.354950 630.702576,399.257385 630.702576,406.159821 
	C631.059509,406.324615 631.416443,406.489410 631.773315,406.654205 
	C637.110779,400.625031 642.576416,394.702637 647.726135,388.517242 
	C649.966003,385.826935 652.337891,384.741272 655.840271,384.889893 
	C662.319153,385.164825 668.818054,384.968536 676.717224,384.968536 
	C667.403870,395.276245 658.810669,404.786987 650.138611,414.384949 
	C651.462158,416.359833 652.569885,418.012726 653.878723,419.971710 
z"/>
<path fill="#FB2D2E" opacity="1.000000" stroke="none" 
	d="
M408.755127,562.968262 
	C400.321014,562.979065 392.366272,562.979065 383.866852,562.979065 
	C383.866852,542.815247 383.866852,523.096924 383.866852,502.801636 
	C375.607941,502.801636 367.881470,502.801636 359.844086,502.801636 
	C359.844086,495.310486 359.844086,488.400238 359.844086,481.231018 
	C385.017639,481.231018 410.057739,481.231018 435.356171,481.231018 
	C435.356171,488.258667 435.356171,495.027283 435.356171,502.562805 
	C427.446167,502.562805 419.590179,502.562805 411.184326,502.562805 
	C411.184326,506.605316 411.184357,509.892120 411.184296,513.178955 
	C411.184082,528.165283 411.242920,543.152161 411.098175,558.137085 
	C411.082581,559.749756 409.884155,561.350952 408.755127,562.968262 
z"/>
<path fill="#FA2D2F" opacity="1.000000" stroke="none" 
	d="
M606.498901,526.184448 
	C607.713928,509.868774 615.786316,498.761261 630.563965,493.271729 
	C644.597107,488.058868 657.314697,491.397827 668.088745,500.943604 
	C662.631836,506.622101 657.371887,512.095581 652.429688,517.238525 
	C649.166321,516.355835 646.060791,514.989624 642.876831,514.772095 
	C637.434998,514.400330 632.658569,517.884033 630.933655,522.870422 
	C629.132019,528.078186 630.224304,532.761475 634.129517,536.635254 
	C637.812622,540.288818 644.013428,541.549927 648.422607,538.743408 
	C651.973816,536.482971 653.827515,537.433960 656.284607,540.107849 
	C660.217773,544.388184 664.515503,548.333557 668.622620,552.384399 
	C662.327148,561.803345 645.992126,566.355652 632.836487,562.533081 
	C616.904663,557.903870 606.923096,544.306519 606.498901,526.184448 
z"/>
<path fill="#FA2D2F" opacity="1.000000" stroke="none" 
	d="
M570.344788,456.871704 
	C547.059998,454.290863 533.012024,432.920807 537.859375,412.450165 
	C541.115051,398.701019 549.754944,389.506073 563.291260,385.518494 
	C576.661194,381.580017 588.515808,384.971008 598.370239,393.787048 
	C593.001343,399.375732 587.770996,404.820160 582.420532,410.389648 
	C573.518066,406.301758 567.489258,406.935547 563.177185,412.663788 
	C559.685669,417.302032 559.822388,423.917084 563.502869,428.419495 
	C568.047363,433.979004 573.880066,434.445160 582.614807,430.054596 
	C587.952759,435.513702 593.246399,440.927490 598.819946,446.627533 
	C591.267944,454.037018 581.796692,457.441467 570.344788,456.871704 
z"/>
<path fill="#036AB5" opacity="1.000000" stroke="none" 
	d="
M143.000366,335.467773 
	C192.973465,335.467743 242.446564,335.467743 292.338348,335.467743 
	C292.338348,364.976288 292.338348,394.044312 292.338348,423.501434 
	C271.415863,430.931000 258.980804,445.569092 260.144653,468.635406 
	C261.179413,489.142822 273.343750,502.048981 292.566071,508.618378 
	C292.566071,537.605469 292.566071,566.566956 292.566071,596.100098 
	C290.675598,596.220947 288.931091,596.429443 287.186554,596.429932 
	C225.687714,596.446655 164.188889,596.452637 102.690048,596.437622 
	C87.736496,596.433960 78.848221,587.483948 78.790932,572.432617 
	C78.760025,564.310974 78.785439,556.189087 78.785439,547.467896 
	C87.278831,547.467896 95.227242,547.468445 103.175652,547.467651 
	C108.175552,547.467163 113.175995,547.510986 118.175247,547.453308 
	C127.782257,547.342590 131.510483,543.642029 131.523209,534.053589 
	C131.559052,507.054138 131.536041,480.054626 131.536011,453.055145 
	C131.536011,434.888824 131.555130,416.722473 131.527878,398.556183 
	C131.512115,388.045624 127.930191,384.485657 117.337433,384.454681 
	C104.706505,384.417725 92.075378,384.445953 79.205666,384.445953 
	C79.205666,373.539978 78.290611,363.008606 79.461830,352.714630 
	C80.644058,342.323883 90.319359,335.568390 101.501472,335.491486 
	C115.167183,335.397491 128.834015,335.468262 143.000366,335.467773 
M242.234985,535.572266 
	C242.145828,534.409912 242.078247,533.245422 241.964340,532.085510 
	C239.999863,512.080811 224.749161,494.809967 205.769485,491.088531 
	C184.714996,486.960297 164.406036,496.257507 154.584915,514.520264 
	C144.933334,532.467773 147.998993,555.274597 162.500641,569.439392 
	C177.036041,583.637207 194.442810,587.308960 213.119888,579.737549 
	C232.052155,572.062622 241.591873,557.026855 242.234985,535.572266 
M226.783249,360.694885 
	C205.710907,342.837128 174.844864,345.512268 158.816177,366.585510 
	C143.247238,387.054291 146.471985,415.223694 166.257416,431.588257 
	C185.276978,447.319366 214.022888,444.847473 230.631042,426.052704 
	C247.312866,407.174500 245.866455,378.863525 226.783249,360.694885 
z"/>
<path fill="#046AB4" opacity="1.000000" stroke="none" 
	d="
M78.779625,412.124725 
	C78.779655,410.012268 78.779655,408.383453 78.779655,406.455383 
	C89.199936,406.455383 99.117989,406.455383 109.483742,406.455383 
	C109.483742,445.965118 109.483742,485.474121 109.483742,525.390259 
	C99.510986,525.390259 89.480377,525.390259 78.779594,525.390259 
	C78.779594,487.734924 78.779594,450.171631 78.779625,412.124725 
z"/>
<path fill="#046AB4" opacity="1.000000" stroke="none" 
	d="
M319.269135,450.732910 
	C326.193787,459.150604 327.365143,468.155212 322.833069,476.415466 
	C318.601807,484.127502 309.762512,488.834473 301.208649,487.930603 
	C292.364899,486.996124 285.008698,480.878754 282.406738,472.295135 
	C279.582275,462.977509 283.144409,452.971252 291.136597,447.772064 
	C300.272522,441.828888 310.394562,442.810364 319.269135,450.732910 
z"/>
<path fill="#046AB4" opacity="1.000000" stroke="none" 
	d="
M411.660034,403.971802 
	C404.242554,403.972382 397.288025,403.972382 390.072876,403.972382 
	C390.072876,401.090698 390.072876,398.697235 390.072876,395.837250 
	C398.412933,395.837250 406.527069,395.668152 414.619385,396.012421 
	C415.890625,396.066498 418.048492,398.416138 418.092926,399.760620 
	C418.217865,403.542175 415.184814,404.039398 411.660034,403.971802 
z"/>
<path fill="#0969B1" opacity="1.000000" stroke="none" 
	d="
M870.964722,510.868561 
	C873.784119,510.869873 876.224548,510.438141 878.406067,511.004150 
	C880.281189,511.490662 881.860657,513.116394 883.570862,514.238403 
	C881.935730,515.485657 880.356262,517.712708 878.655762,517.809387 
	C871.534546,518.214050 864.377075,517.980103 856.819580,517.980103 
	C856.819580,515.729492 856.819580,513.680359 856.819580,510.868561 
	C861.322876,510.868561 865.898132,510.868561 870.964722,510.868561 
z"/>
<path fill="#0769B2" opacity="1.000000" stroke="none" 
	d="
M470.295532,510.876526 
	C477.082428,510.876526 483.412109,510.657288 489.705505,511.038361 
	C491.276642,511.133453 492.730652,513.163452 494.238495,514.304199 
	C492.758850,515.526611 491.329285,517.726074 489.791016,517.804932 
	C482.514282,518.177979 475.207825,517.971375 467.415985,517.971375 
	C467.946442,515.239685 464.591888,511.852844 470.295532,510.876526 
z"/>
<path fill="#1067AD" opacity="1.000000" stroke="none" 
	d="
M556.580444,530.367676 
	C558.408569,523.766846 560.133606,517.555237 561.858704,511.343689 
	C562.319946,511.297638 562.781189,511.251587 563.242432,511.205536 
	C565.476135,519.285217 567.709839,527.364868 570.037048,535.782959 
	C564.849854,535.782959 560.245911,535.782959 555.242310,535.782959 
	C555.702515,533.910217 556.089966,532.333618 556.580444,530.367676 
z"/>
<path fill="#FB2D2E" opacity="1.000000" stroke="none" 
	d="
M242.257050,536.048279 
	C241.591873,557.026855 232.052155,572.062622 213.119888,579.737549 
	C194.442810,587.308960 177.036041,583.637207 162.500641,569.439392 
	C147.998993,555.274597 144.933334,532.467773 154.584915,514.520264 
	C164.406036,496.257507 184.714996,486.960297 205.769485,491.088531 
	C224.749161,494.809967 239.999863,512.080811 241.964340,532.085510 
	C242.078247,533.245422 242.145828,534.409912 242.257050,536.048279 
M184.501770,559.206360 
	C189.620041,561.748108 194.944061,562.355835 200.533859,561.101685 
	C210.977768,558.758362 217.757462,552.513672 220.062805,542.058289 
	C222.314728,531.845276 219.099106,523.089050 210.858734,516.780151 
	C202.633408,510.482758 193.385361,509.640808 184.077866,514.447571 
	C166.247131,523.656006 166.158325,547.653503 184.501770,559.206360 
z"/>
<path fill="#FB2D2E" opacity="1.000000" stroke="none" 
	d="
M227.049683,360.931580 
	C245.866455,378.863525 247.312866,407.174500 230.631042,426.052704 
	C214.022888,444.847473 185.276978,447.319366 166.257416,431.588257 
	C146.471985,415.223694 143.247238,387.054291 158.816177,366.585510 
	C174.844864,345.512268 205.710907,342.837128 227.049683,360.931580 
M219.404251,387.375458 
	C213.825668,373.528687 201.174088,367.258240 187.700012,371.662048 
	C175.154327,375.762421 168.148849,388.502655 171.373260,401.354156 
	C174.766068,414.876953 188.029007,422.787872 201.759720,419.478638 
	C215.485214,416.170685 223.031342,402.951813 219.404251,387.375458 
z"/>
<path fill="#046AB4" opacity="1.000000" stroke="none" 
	d="
M184.156738,559.057068 
	C166.158325,547.653503 166.247131,523.656006 184.077866,514.447571 
	C193.385361,509.640808 202.633408,510.482758 210.858734,516.780151 
	C219.099106,523.089050 222.314728,531.845276 220.062805,542.058289 
	C217.757462,552.513672 210.977768,558.758362 200.533859,561.101685 
	C194.944061,562.355835 189.620041,561.748108 184.156738,559.057068 
z"/>
<path fill="#046AB4" opacity="1.000000" stroke="none" 
	d="
M219.527374,387.757019 
	C223.031342,402.951813 215.485214,416.170685 201.759720,419.478638 
	C188.029007,422.787872 174.766068,414.876953 171.373260,401.354156 
	C168.148849,388.502655 175.154327,375.762421 187.700012,371.662048 
	C201.174088,367.258240 213.825668,373.528687 219.527374,387.757019 
z"/>
</svg>